<svg version="1.1" id="Layer_1" xmlns="http://www.w3.org/2000/svg" xmlns:xlink="http://www.w3.org/1999/xlink" x="0px" y="0px"
	 width="100%" viewBox="0 0 496 496" enable-background="new 0 0 496 496" xml:space="preserve">
<path fill="#000000" opacity="1.000000" stroke="none" 
	d="
M294.000000,497.000000 
	C196.000031,497.000000 98.500046,497.000000 1.000052,497.000000 
	C1.000035,331.666718 1.000035,166.333466 1.000017,1.000141 
	C166.333237,1.000094 331.666473,1.000094 496.999756,1.000047 
	C496.999847,166.333191 496.999847,331.666382 496.999939,496.999786 
	C429.500000,497.000000 362.000000,497.000000 294.000000,497.000000 
M107.016090,213.985321 
	C107.016090,213.985321 107.058243,213.943863 107.001030,213.196732 
	C110.258835,206.158920 113.516640,199.121094 116.661392,192.327530 
	C112.689964,189.012573 110.169434,189.123611 108.965858,193.863647 
	C106.665237,192.772659 104.507889,192.022125 102.694023,190.772873 
	C101.806068,190.161331 101.041267,188.564255 101.159622,187.519623 
	C101.284073,186.421249 102.787331,184.457596 103.246574,184.576553 
	C107.878654,185.776428 106.423210,181.874893 108.662071,178.966522 
	C104.624924,178.966522 101.373947,178.047089 99.388885,179.237900 
	C97.582634,180.321457 97.121185,183.684753 96.135033,186.071274 
	C95.881126,186.685730 96.065567,187.515976 95.737572,188.059311 
	C94.076477,190.810989 92.312836,193.500763 90.409859,196.487320 
	C92.776169,197.356354 94.600792,198.026459 96.406731,198.689697 
	C100.041626,192.456207 103.124580,199.733154 106.711479,198.362030 
	C105.007263,205.880875 104.785553,205.978668 97.462814,204.040176 
	C96.710022,203.840881 95.824028,204.144730 94.352104,204.084549 
	C93.919113,204.011810 93.486115,203.939072 92.698364,203.211136 
	C88.753082,202.207672 88.667259,205.056763 88.337074,207.615204 
	C88.222717,208.501266 88.588165,209.645752 88.153580,210.263672 
	C83.717209,216.571564 86.277870,223.030289 94.477547,224.944702 
	C94.635750,224.999084 94.793953,225.053467 95.388077,225.776474 
	C98.308594,225.223694 101.229111,224.670914 104.860123,224.061630 
	C105.925934,222.381699 106.991745,220.701782 108.668488,218.668900 
	C108.129402,217.092621 107.590317,215.516327 107.016090,213.985321 
M253.974945,403.083221 
	C253.640945,398.062988 253.306931,393.042755 252.624954,387.266479 
	C251.191681,387.266479 249.758392,387.266479 248.316162,387.266479 
	C248.316162,401.595032 248.316162,415.773499 248.316162,430.103729 
	C250.389587,429.971344 252.122696,429.860718 253.865189,429.749481 
	C253.865189,420.898407 253.865189,412.454956 253.974945,403.083221 
M94.809555,273.669617 
	C95.744087,273.438141 96.670845,273.045990 97.614380,273.000275 
	C106.202057,272.584106 107.832497,270.278259 105.453659,261.833069 
	C104.926971,259.963226 104.800934,257.870911 103.840683,256.271027 
	C103.191383,255.189224 101.404305,254.790329 100.126129,254.085968 
	C99.855026,255.352524 99.441109,256.607971 99.341522,257.887878 
	C99.109764,260.866455 99.029442,263.856750 98.012451,266.915710 
	C93.334267,267.588745 88.656082,268.261749 83.317139,269.034698 
	C82.875908,269.090088 82.434677,269.145508 81.266808,269.012054 
	C79.643379,269.117126 77.871010,268.883789 76.472282,269.499359 
	C75.937775,269.734619 75.708908,272.390625 76.319366,273.093536 
	C77.218864,274.129242 79.007996,274.940430 80.394035,274.904877 
	C84.938004,274.788300 89.471046,274.246216 94.809555,273.669617 
M120.292442,144.282944 
	C119.095818,145.560135 117.899185,146.837311 116.518036,148.311447 
	C118.722099,149.497070 120.387238,150.392792 122.012680,151.267151 
	C125.586967,146.076447 126.800262,146.387421 132.728760,153.696320 
	C131.505432,154.993515 130.270523,156.302994 129.599930,157.014069 
	C130.759247,158.977646 131.808167,160.754242 132.905701,162.613144 
	C137.293564,157.341766 141.008377,152.878937 144.868576,148.241455 
	C142.512390,146.949829 141.145218,142.075180 138.026062,147.226364 
	C137.758835,147.667679 135.322083,147.354767 134.355576,146.704712 
	C131.806046,144.989899 129.511093,142.896561 126.835678,140.323395 
	C125.649673,139.817688 124.463661,139.311981 123.128548,138.742706 
	C122.957024,134.909271 121.289459,132.588730 118.126907,133.130676 
	C116.650002,133.383774 114.346069,135.418488 114.365517,136.613998 
	C114.437080,141.013199 117.737389,141.867599 121.415565,141.293045 
	C121.197937,142.382187 121.040794,143.168655 120.292442,144.282944 
M379.653564,145.712845 
	C377.904022,143.810211 376.291931,141.744781 374.332611,140.090652 
	C373.619019,139.488220 371.513245,139.371323 371.043976,139.908188 
	C370.288605,140.772293 370.032928,142.407150 370.196594,143.632156 
	C370.321442,144.566711 371.422729,145.370804 372.047668,146.178696 
	C365.966705,153.155350 365.530823,153.221268 360.489227,147.920563 
	C359.111237,148.755325 357.680847,149.621841 355.954285,150.667786 
	C359.267212,154.605835 363.010040,158.002213 365.404755,162.172684 
	C368.282104,167.183655 369.827332,164.712723 372.252838,162.080551 
	C370.982086,160.605042 369.940338,159.395386 368.580933,157.816910 
	C369.957062,156.775604 371.376068,156.129517 372.159027,155.030365 
	C374.643341,151.542862 381.220337,151.174179 380.702423,145.095383 
	C382.773865,144.928070 384.993469,145.131912 386.837921,144.395798 
	C387.499939,144.131592 387.929260,140.804520 387.291687,140.267181 
	C385.852356,139.054108 383.492401,137.826981 381.845123,138.180618 
	C377.428680,139.128754 379.514496,142.408005 379.653564,145.712845 
M369.080566,366.726318 
	C370.181396,368.494446 370.923950,370.889160 372.515442,371.799072 
	C373.492584,372.357758 376.369934,371.070953 377.265869,369.810760 
	C377.942963,368.858429 377.349579,365.695679 376.409241,365.179779 
	C374.596893,364.185455 372.138977,364.367767 370.142365,363.410156 
	C372.286224,361.662476 374.430084,359.914825 376.525513,358.206635 
	C372.325348,353.688324 372.392334,353.809937 368.168976,356.136475 
	C367.221039,356.658661 365.291199,356.466431 364.383453,355.812164 
	C359.997772,352.651184 360.117920,351.136963 364.602325,346.432129 
	C362.210876,342.276794 359.684784,342.209229 356.582062,345.869019 
	C354.223785,348.650726 351.274689,350.931061 348.910492,353.708557 
	C348.290192,354.437286 348.362396,356.723938 349.015503,357.336090 
	C349.942688,358.205139 351.868744,358.731812 353.052246,358.370544 
	C353.966003,358.091644 354.394623,356.223267 355.272217,354.640930 
	C358.596710,358.056549 360.616180,360.504425 363.022858,362.480804 
	C364.807739,363.946564 367.095612,364.799774 369.080566,366.726318 
M205.142517,400.434448 
	C205.497681,399.889801 205.838745,399.334778 206.223083,398.811554 
	C206.281403,398.732178 206.540756,398.800507 206.918930,398.800507 
	C205.771713,404.845581 204.631516,410.853546 203.357864,417.564819 
	C206.701859,418.429443 210.065002,419.298981 213.722488,420.244659 
	C215.372833,414.561432 216.905655,409.282928 218.438461,404.004425 
	C218.558487,407.667999 218.289963,411.226471 217.931366,414.775848 
	C217.291000,421.113892 217.298386,421.138580 224.041672,421.977173 
	C225.088394,422.107361 226.122314,422.340546 227.826279,422.644592 
	C229.335358,414.375488 230.701233,406.380920 232.278885,398.428314 
	C233.304810,393.256744 232.966385,392.785858 227.373383,393.553345 
	C226.792984,395.989288 226.195419,398.497314 225.497055,401.428314 
	C223.609039,397.812836 229.303452,391.478699 221.058624,390.902496 
	C216.295212,390.569611 215.236176,393.506836 213.937790,396.996796 
	C214.222000,394.993317 214.506210,392.989838 214.829346,390.712036 
	C213.126892,390.060944 211.390915,389.397064 209.396423,388.634277 
	C208.691833,391.369385 208.102509,393.657013 207.247604,396.975555 
	C207.023560,394.269592 206.888397,392.636993 206.691574,390.330658 
	C204.272522,388.572662 201.999969,386.543243 199.391922,385.135345 
	C196.934433,383.808716 194.125504,383.131165 191.467102,382.179443 
	C190.184570,381.720337 188.892685,381.287354 187.746506,380.891418 
	C186.431519,386.156128 185.638870,391.027557 183.973633,395.579803 
	C181.739105,401.688354 181.596619,401.807770 188.024368,402.529297 
	C188.728134,402.608215 189.447723,403.090851 190.038956,403.544098 
	C196.658813,408.619202 199.302887,408.177277 205.142517,400.434448 
M170.447861,132.886841 
	C171.228073,133.897736 172.008286,134.908615 172.826294,135.968475 
	C176.608612,133.650711 180.354446,131.386948 184.065643,129.067780 
	C185.923019,127.907089 187.743271,126.762321 186.035416,124.050331 
	C181.396255,116.683578 176.854706,109.255356 172.423462,102.092346 
	C167.699875,104.331062 163.303329,106.302734 159.040085,108.529625 
	C158.184860,108.976341 157.615189,110.325745 157.291504,111.375397 
	C155.414764,117.461548 158.413452,124.498741 164.480835,126.978691 
	C166.631241,127.857628 169.703583,127.690659 171.923050,126.854515 
	C174.193542,125.999161 175.934433,123.738045 177.875916,122.118340 
	C180.015274,124.271255 178.995483,125.543198 176.395111,127.009384 
	C174.071915,128.319290 172.203415,130.435623 170.447861,132.886841 
M204.354996,79.917542 
	C202.561493,80.367661 200.767990,80.817780 198.639267,81.352028 
	C199.630249,83.425072 200.077667,85.067795 201.055206,86.284645 
	C205.488358,91.803123 207.117111,97.819954 205.213333,104.779999 
	C204.860596,106.069588 205.085739,107.916214 205.816879,108.969185 
	C206.342789,109.726578 208.212555,109.960915 209.377945,109.774078 
	C211.450562,109.441780 213.418289,108.508621 215.474411,108.010704 
	C224.419815,105.844475 226.856171,102.724304 225.025345,93.964149 
	C221.982162,79.403069 218.125168,75.981277 204.354996,79.917542 
M357.088806,333.614410 
	C357.850006,334.982758 358.276855,336.816528 359.427338,337.643005 
	C366.290131,342.573090 373.319916,347.270630 380.542450,352.216583 
	C381.384247,350.356476 383.250031,347.857697 382.713837,347.130890 
	C380.643829,344.324829 383.022369,343.913879 384.411346,343.340057 
	C390.113312,340.984375 391.177094,338.255066 388.286896,332.703583 
	C385.136139,326.651642 378.524780,324.325867 371.287781,326.208984 
	C369.422699,324.163086 367.837891,322.424591 365.916840,320.317261 
	C362.695312,324.902679 359.902466,328.877899 357.088806,333.614410 
M341.010681,115.610977 
	C338.586761,113.034370 335.317810,110.891861 336.231628,106.559021 
	C342.291046,105.566154 343.676086,107.159355 342.553680,113.753838 
	C344.267090,114.762161 346.000183,115.782066 347.717407,116.792633 
	C352.276001,109.403786 347.717407,101.179108 339.057800,99.995224 
	C335.093872,99.453308 331.604584,100.526237 330.240356,104.069191 
	C329.336090,106.417458 329.889130,109.733704 330.800842,112.250336 
	C331.581421,114.405029 334.020996,115.900513 335.303650,117.952126 
	C336.147644,119.302116 336.626373,121.162514 336.462677,122.709045 
	C336.404541,123.257874 333.720459,124.203568 332.672302,123.808441 
	C331.239502,123.268311 329.825897,121.809952 329.151215,120.390175 
	C328.573090,119.173576 329.483093,117.269135 328.940857,116.011177 
	C328.293243,114.508636 327.001862,112.805855 325.592255,112.303047 
	C324.842834,112.035736 322.539948,113.909607 322.164368,115.179565 
	C320.210907,121.784912 326.313660,129.336349 333.630524,130.100830 
	C338.051147,130.562714 340.837036,128.539902 342.929260,125.059227 
	C344.925140,121.738869 344.044708,118.780525 341.010681,115.610977 
M393.630768,280.888428 
	C391.641815,278.913452 390.914551,280.303680 390.394348,282.123688 
	C388.870789,287.454102 387.366638,292.790039 385.707672,298.643127 
	C387.721283,299.253326 389.509430,299.795166 391.682831,300.453766 
	C393.026550,296.116241 394.259796,292.135406 395.579224,287.876312 
	C397.392548,288.436920 399.015991,288.938843 400.529938,289.406891 
	C399.517120,293.606781 398.575806,297.510254 397.579620,301.641296 
	C399.785889,301.935211 401.346222,302.143097 403.515961,302.432159 
	C404.145721,300.347839 404.930573,298.253113 405.398865,296.089813 
	C406.229187,292.253998 407.908051,290.385132 412.109528,292.844574 
	C411.287170,295.792664 410.204590,298.716400 409.754913,301.734497 
	C409.562256,303.027283 410.686707,304.516296 411.212738,305.916138 
	C412.801819,305.024109 415.160004,304.507935 415.818237,303.161041 
	C417.146301,300.443420 417.502075,297.260468 418.345581,294.294128 
	C420.035309,288.351807 420.002747,288.573059 413.863678,286.952759 
	C407.318848,285.225372 400.895630,283.037231 393.630768,280.888428 
M299.449432,407.914734 
	C299.879364,407.668427 300.294708,407.239197 300.741455,407.203552 
	C306.487305,406.745209 309.886475,403.176361 310.753052,398.018127 
	C311.570709,393.151337 308.622742,389.087311 304.767120,386.355408 
	C300.512573,383.340790 295.814697,384.906921 291.850464,387.145203 
	C290.095917,388.135803 289.423981,391.043884 288.229340,393.136322 
	C291.087982,394.074249 292.715973,394.608398 295.048523,395.373749 
	C292.680603,396.219360 291.053589,396.800385 289.463104,397.368378 
	C289.194305,403.797455 293.361053,406.362610 299.449432,407.914734 
M317.185883,376.395264 
	C315.181458,378.967712 313.177032,381.540161 311.172607,384.112610 
	C312.782654,384.989746 314.392700,385.866913 315.960114,386.720825 
	C312.219940,389.456421 312.170929,392.719910 315.934418,395.486420 
	C320.135040,398.574310 326.324860,398.077759 330.124420,394.347961 
	C334.129120,390.416901 334.565491,385.696564 331.372467,380.848938 
	C327.642792,375.186615 323.497406,373.712769 317.185883,376.395264 
M100.614250,231.042740 
	C97.129967,231.931656 98.223946,234.298721 99.001968,236.394562 
	C100.096077,239.341888 99.351974,241.424637 96.273468,243.303589 
	C96.541771,238.297989 96.781662,233.822495 97.027756,229.231445 
	C92.068100,229.168808 87.434784,227.236328 84.702667,232.619171 
	C82.221970,237.506653 82.365982,242.837677 85.364525,245.909760 
	C89.270981,249.912033 94.867226,251.044067 99.761398,248.587463 
	C103.497993,246.711899 105.944557,243.617706 105.907715,239.350143 
	C105.878662,235.986786 105.354362,232.487793 100.614250,231.042740 
M117.143669,316.535828 
	C119.853149,312.567810 118.877052,309.172699 116.255508,305.381958 
	C114.158669,302.349976 112.072586,300.694153 107.427399,301.327332 
	C108.280403,303.472137 108.897011,305.156830 109.615807,306.796753 
	C110.565079,308.962494 111.594467,311.093109 113.003777,314.132446 
	C110.982666,313.684570 110.487633,313.706543 110.411079,313.538208 
	C109.208076,310.892792 108.027634,308.236053 106.905022,305.555481 
	C105.355583,301.855743 101.213715,300.692474 98.842354,303.872253 
	C97.093697,306.217072 96.059692,309.563751 95.903709,312.527008 
	C95.605553,318.191223 99.766083,321.521698 104.480049,322.517273 
	C109.204269,323.515015 113.672668,321.133667 117.143669,316.535828 
M248.968216,92.349289 
	C248.788818,89.575058 249.565765,85.989624 248.122162,84.287735 
	C247.002289,82.967499 243.108902,84.005859 240.448502,83.978546 
	C240.126846,83.975243 239.783966,83.917755 239.488571,83.794891 
	C235.045090,81.946762 231.375336,82.939484 228.948502,87.099266 
	C226.262863,91.702644 226.944153,98.134575 230.175735,101.638344 
	C233.352341,105.082512 238.181213,106.378181 241.191284,104.084129 
	C242.872131,102.803116 243.607010,102.545448 245.635696,103.647293 
	C247.034622,104.407089 249.628159,103.331352 251.483597,102.574982 
	C251.848160,102.426369 251.472473,99.926849 251.091003,98.612305 
	C250.559662,96.781235 249.701187,95.045074 248.968216,92.349289 
M375.499420,165.985809 
	C371.657654,169.890335 372.527832,174.197449 375.031433,178.142242 
	C377.190002,181.543320 380.270782,184.042007 384.857666,182.717316 
	C385.265198,177.762802 376.953949,175.981445 380.690735,169.968964 
	C383.255157,174.083649 385.788177,178.147888 389.359863,183.878662 
	C392.084442,179.580521 394.806488,176.758942 395.771637,173.428268 
	C397.327637,168.058609 393.041534,164.703415 389.288849,162.280075 
	C384.290131,159.052094 379.809967,161.876511 375.499420,165.985809 
M144.995926,384.510040 
	C142.011627,388.871735 145.049408,389.973389 148.323334,390.849762 
	C153.224625,384.687012 157.992401,378.478760 162.999817,372.470306 
	C166.381348,368.412750 166.448959,368.105621 161.315445,364.922119 
	C159.024490,367.648590 156.988937,370.726440 154.288177,373.021515 
	C152.837555,374.254181 150.244492,374.142456 148.166916,374.637329 
	C148.288345,372.410431 147.712891,369.795715 148.687912,368.043884 
	C150.315277,365.119904 152.934402,362.747894 155.277222,359.976410 
	C153.809433,358.329132 152.543930,356.908905 150.941589,355.110657 
	C147.921707,358.866333 145.166458,361.859100 142.908310,365.188965 
	C137.756302,372.786041 139.508041,377.117798 148.889877,379.674377 
	C147.653656,381.212128 146.548828,382.586426 144.995926,384.510040 
M277.066986,95.152588 
	C277.024323,96.644501 276.946777,98.136360 276.944885,99.628326 
	C276.935303,107.136459 283.791870,111.161560 289.350403,108.344887 
	C292.324738,109.795601 294.508148,110.860558 296.865295,112.010239 
	C298.068329,104.441345 299.174774,97.480392 300.382599,89.881516 
	C297.826294,89.881516 295.244720,90.646233 293.523773,89.752937 
	C284.732880,85.189827 281.533112,85.941681 277.066986,95.152588 
M403.025116,247.540909 
	C403.113678,254.177750 403.755341,254.833466 408.525696,253.162247 
	C414.578644,251.041672 417.521271,245.423447 415.433472,239.973587 
	C412.953644,233.500458 404.554535,230.752548 397.666962,234.160980 
	C393.727570,236.110458 391.553070,243.914825 394.142853,248.152557 
	C394.897797,249.387848 397.030151,249.781372 398.531128,250.560745 
	C399.032257,249.242371 399.793793,247.959030 399.976868,246.597885 
	C400.295563,244.228424 400.257446,241.810974 400.368896,239.413635 
	C400.832245,239.432175 401.295593,239.450729 401.758942,239.469269 
	C402.178894,241.868851 402.598846,244.268448 403.025116,247.540909 
M118.065071,360.387268 
	C117.034599,363.333984 116.628304,366.718445 120.074234,367.751434 
	C124.811455,369.171509 126.150055,365.548309 126.205490,360.914948 
	C128.685577,363.248505 130.574203,365.025543 132.427994,366.769806 
	C134.982162,364.955017 136.478180,363.301392 134.106644,360.261627 
	C133.451309,359.421661 133.957642,356.903015 134.800232,355.850433 
	C136.020813,354.325653 138.032196,353.433929 139.665924,352.300171 
	C140.373322,352.951721 140.864975,353.399597 141.351135,353.853333 
	C142.906860,355.305298 144.680405,357.627136 146.461868,354.727081 
	C147.103577,353.682434 146.086655,351.048401 145.086075,349.681946 
	C142.868668,346.653778 140.382034,343.742371 137.576599,341.269623 
	C136.623672,340.429718 134.384552,341.049011 132.733170,341.001526 
	C132.864120,342.208008 132.782928,343.493927 133.195175,344.595093 
	C133.508072,345.430878 134.449127,346.031525 135.110657,346.736786 
	C134.595230,346.347076 134.079788,345.957336 133.564346,345.567627 
	C130.803619,349.236511 128.294250,353.140228 125.177063,356.476013 
	C123.597672,358.166199 120.921143,358.831116 118.065071,360.387268 
M259.564789,81.924294 
	C257.743073,82.517044 255.921371,83.109787 254.355347,83.619347 
	C252.391907,89.330414 258.019379,87.824135 259.814941,89.772224 
	C256.959930,103.123665 257.829102,104.294693 271.557709,105.277519 
	C271.557709,103.609955 271.557709,101.966583 271.557709,100.277374 
	C269.632172,100.092880 268.035095,99.939865 266.214050,99.765381 
	C266.214050,96.218430 266.214050,92.936302 266.214050,90.968224 
	C269.112549,89.744873 271.504211,88.735451 273.895874,87.726028 
	C271.770874,86.010757 269.645874,84.295486 267.079071,82.223610 
	C266.861328,74.674156 266.861328,74.674156 261.466156,75.495926 
	C261.111420,77.578209 260.756653,79.660492 259.564789,81.924294 
M107.982422,337.116882 
	C109.278534,339.861206 113.672005,340.409698 113.212883,344.589417 
	C113.164635,345.028656 116.223915,346.639099 116.988358,346.204712 
	C122.438049,343.108215 127.666016,339.621521 132.791504,336.368744 
	C130.971329,332.053284 129.063858,330.479767 125.619171,333.678223 
	C124.215118,334.981903 122.469383,336.223175 120.667648,336.709625 
	C118.749107,337.227631 116.580315,336.818726 114.520775,336.814514 
	C114.984642,334.759430 114.864220,332.226837 116.056923,330.767334 
	C117.628174,328.844666 120.089439,327.444794 122.429047,326.410553 
	C124.900650,325.317932 125.574669,323.701294 123.911995,322.007172 
	C122.943504,321.020386 120.404419,320.508759 119.160583,321.075409 
	C116.377083,322.343475 114.105858,324.701385 111.364403,326.104187 
	C106.731010,328.475067 106.219040,331.978546 107.982422,337.116882 
M161.064468,382.770782 
	C161.062637,391.038452 165.399719,395.325775 173.488495,395.052216 
	C179.616257,394.844971 184.652252,389.191437 184.022339,382.801483 
	C183.466904,377.167053 178.074570,371.963409 170.074875,373.146637 
	C168.242722,373.417633 165.143692,375.689819 165.277512,376.684540 
	C165.663101,379.550995 167.728210,381.201660 170.994781,379.161102 
	C171.712921,378.712524 173.304245,378.673279 173.872971,379.164246 
	C175.414078,380.494537 178.021622,383.197327 177.730011,383.611206 
	C176.080414,385.952606 173.704239,387.782104 171.575531,389.785950 
	C170.389465,388.497864 168.314636,387.298096 168.176300,385.905884 
	C167.667282,380.783569 164.306198,381.670746 161.064468,382.770782 
M397.048370,217.010162 
	C398.669647,214.107208 401.206482,212.686310 404.212433,214.142731 
	C405.552307,214.791916 406.559845,216.991287 406.851807,218.640472 
	C407.052032,219.771423 405.416077,221.117493 405.222778,222.457123 
	C405.003967,223.973862 405.480011,225.590866 405.653900,227.164291 
	C407.032501,226.996368 408.816620,227.322510 409.722626,226.578827 
	C414.892273,222.335495 415.063965,218.342346 410.687134,212.216858 
	C408.027252,208.494202 402.411133,206.775253 397.621277,208.203308 
	C392.776581,209.647751 390.671234,213.419724 390.156433,217.948227 
	C389.649506,222.407806 393.873077,227.910049 398.266083,229.001984 
	C399.296143,229.258026 400.585754,228.469803 401.755981,228.161987 
	C401.332214,226.793335 401.281738,224.595642 400.417053,224.206284 
	C397.421326,222.857391 396.746735,220.682220 397.048370,217.010162 
M282.115021,399.367706 
	C282.792419,398.195435 283.532593,397.054047 284.129272,395.842010 
	C284.705109,394.672394 285.842560,393.073700 285.456451,392.304474 
	C284.902771,391.201416 283.126190,389.948700 281.984131,390.048340 
	C278.622864,390.341553 275.297638,391.192505 272.007111,392.019409 
	C271.404053,392.170929 270.754944,393.173462 270.594818,393.887970 
	C269.450104,398.996246 272.750488,397.943787 275.432892,397.157654 
	C275.956573,399.514130 276.796356,401.582886 276.737915,403.625977 
	C276.698364,405.007996 275.624451,406.592865 274.560150,407.615570 
	C274.023804,408.130981 271.686371,407.918518 271.512665,407.489197 
	C269.589722,402.736938 267.003815,405.315918 264.386169,406.390564 
	C267.432220,414.007996 269.621063,415.405304 274.814056,413.668396 
	C277.265839,412.848328 279.928162,412.667786 282.399261,411.892151 
	C284.308807,411.292755 286.069061,410.217834 287.895691,409.354309 
	C286.658173,407.843201 285.420685,406.332123 284.183167,404.821045 
	C283.897369,405.030945 283.611603,405.240875 283.325836,405.450775 
	C283.059998,403.668427 282.794189,401.886047 282.115021,399.367706 
M392.737457,191.109543 
	C393.231232,191.037582 393.784424,191.085098 394.209015,190.874008 
	C396.691254,189.639938 399.439514,188.960831 399.960114,192.504654 
	C400.202026,194.151245 398.600403,196.730743 397.073181,197.816986 
	C394.888397,199.370911 391.883026,199.719772 389.477448,201.038239 
	C388.418304,201.618759 387.972809,203.318863 387.248718,204.510681 
	C388.600189,205.292633 390.228180,207.000000 391.254456,206.693359 
	C395.296173,205.485748 399.311951,203.950500 403.030853,201.963226 
	C407.867493,199.378616 408.343292,193.879547 404.524109,190.044083 
	C403.869110,189.386292 403.417389,188.412567 403.153015,187.503052 
	C402.613251,185.645935 402.264862,183.733215 401.780762,181.592056 
	C397.086578,183.236282 393.089874,184.607224 389.116119,186.041763 
	C387.427307,186.651443 385.563965,187.108826 384.199158,188.173050 
	C383.225677,188.932129 382.195190,190.912521 382.558960,191.760956 
	C383.002838,192.796082 384.971558,193.903885 386.117645,193.751694 
	C388.152069,193.481552 390.063568,192.285873 392.737457,191.109543 
M354.355408,127.984909 
	C355.910583,129.685135 358.911224,131.545013 358.744446,133.055023 
	C358.281799,137.243698 360.607025,138.041397 363.488220,138.960922 
	C366.442871,132.359146 365.060822,127.511292 359.338440,124.039314 
	C354.745270,121.252480 348.211700,122.701233 344.109100,127.416252 
	C341.048462,130.933792 341.325073,136.225342 344.437836,139.971695 
	C348.754578,145.167084 354.641022,147.013062 359.567993,142.759506 
	C358.200378,140.230576 357.849915,137.132339 353.136078,138.705841 
	C349.960449,139.765869 347.177429,135.803253 348.785095,132.897522 
	C349.852997,130.967438 351.945435,129.604202 354.355408,127.984909 
M342.089600,377.459290 
	C339.820190,374.885040 337.687195,372.167358 335.210480,369.811035 
	C334.290771,368.936127 332.565247,368.908295 331.207184,368.494202 
	C331.070251,370.107056 330.285767,372.066010 330.925903,373.263489 
	C332.440155,376.096100 334.222473,379.076111 336.666046,381.037933 
	C339.022247,382.929596 342.516754,384.854095 345.191040,384.479340 
	C347.722137,384.124695 349.837463,380.802887 351.841125,379.044495 
	C353.883728,377.871857 355.828979,376.755066 357.775421,375.637604 
	C353.232239,369.854584 348.859711,364.288788 344.473999,358.706207 
	C342.550323,360.007812 341.253296,360.885437 339.865967,361.824127 
	C342.406769,365.278259 344.982880,368.428131 347.096039,371.862823 
	C347.750275,372.926208 347.712372,375.233246 346.972290,376.126923 
	C346.073273,377.212524 344.096039,377.405182 342.089600,377.459290 
M156.009598,133.419113 
	C157.053146,134.369522 158.096680,135.319931 159.286850,136.403900 
	C160.683960,134.846008 161.738602,133.670013 162.833618,132.448990 
	C159.795715,128.896576 156.900131,125.569405 154.071808,122.186005 
	C151.468536,119.071846 146.422409,117.679260 143.873856,119.872299 
	C140.462738,122.807579 137.400558,126.148361 134.169907,129.333374 
	C138.699615,134.450851 143.321991,139.673035 147.942642,144.893280 
	C152.770889,141.069626 152.602570,141.226776 148.418625,136.745453 
	C146.514450,134.705948 145.085693,132.026215 144.145874,129.386047 
	C143.803085,128.423111 145.221252,126.316849 146.378464,125.532570 
	C147.058899,125.071442 149.089371,125.855026 150.015335,126.654640 
	C152.132446,128.482849 153.943939,130.664932 156.009598,133.419113 
M109.653435,175.947098 
	C113.192696,177.927811 116.731956,179.908508 120.258339,181.882004 
	C123.831528,177.617798 123.642998,176.726074 118.938087,174.328629 
	C116.920273,173.300446 114.873650,172.256302 113.057266,170.923477 
	C110.741699,169.224380 110.228233,166.691788 112.313507,164.731567 
	C113.301590,163.802719 115.870064,163.561737 117.187759,164.169189 
	C120.685341,165.781525 123.891930,168.025101 127.137436,169.971497 
	C131.466339,165.997025 131.396744,165.517456 126.531494,162.863831 
	C123.394897,161.153061 120.375580,159.203903 117.153069,157.680161 
	C113.493111,155.949600 109.254517,157.303665 107.843948,160.355118 
	C106.228928,163.848877 104.650284,167.359467 102.822983,171.374359 
	C104.465134,172.466599 106.759705,173.992783 109.653435,175.947098 
M394.858215,318.070007 
	C393.531067,321.355713 391.412384,321.392822 388.545959,319.917633 
	C385.676086,318.440765 382.646729,317.230438 379.588104,316.196747 
	C378.891205,315.961182 377.350372,316.707001 376.988434,317.408813 
	C376.602020,318.158051 376.838898,320.076782 377.340820,320.305328 
	C382.492859,322.651123 387.636444,325.195984 393.059906,326.649902 
	C394.591125,327.060394 397.611664,324.476807 398.912079,322.562103 
	C400.684204,319.952972 401.713684,316.734100 402.521454,313.635864 
	C402.783203,312.632050 401.663208,310.602722 400.631989,310.042419 
	C396.219849,307.645111 391.668579,305.463165 387.013550,303.585815 
	C386.002258,303.178009 383.976593,304.010590 383.148254,304.929810 
	C382.693787,305.434143 383.375000,307.870056 384.222778,308.460388 
	C386.326324,309.925171 388.724426,311.154877 391.181183,311.875885 
	C394.118164,312.737793 395.313934,314.337158 394.858215,318.070007 
M197.996368,120.479568 
	C198.226212,119.044487 199.043167,117.382553 198.590561,116.211159 
	C195.671112,108.655418 192.463959,101.211113 189.372910,93.721283 
	C187.888657,90.124855 186.702621,86.371307 184.844498,82.983459 
	C184.268341,81.932999 181.925385,81.851585 180.391312,81.326515 
	C180.033081,82.437553 179.073273,83.789627 179.407303,84.623276 
	C184.025345,96.148552 188.757431,107.630173 193.687012,119.024956 
	C194.109009,120.000381 196.132950,120.282776 197.996368,120.479568 
z"/>
<path fill="#AC4C92" opacity="1.000000" stroke="none" 
	d="
M206.753220,391.004395 
	C206.888397,392.636993 207.023560,394.269592 207.247604,396.975555 
	C208.102509,393.657013 208.691833,391.369385 209.396423,388.634277 
	C211.390915,389.397064 213.126892,390.060944 214.829346,390.712036 
	C214.506210,392.989838 214.222000,394.993317 213.937790,396.996796 
	C215.236176,393.506836 216.295212,390.569611 221.058624,390.902496 
	C229.303452,391.478699 223.609039,397.812836 225.497055,401.428314 
	C226.195419,398.497314 226.792984,395.989288 227.373383,393.553345 
	C232.966385,392.785858 233.304810,393.256744 232.278885,398.428314 
	C230.701233,406.380920 229.335358,414.375488 227.826279,422.644592 
	C226.122314,422.340546 225.088394,422.107361 224.041672,421.977173 
	C217.298386,421.138580 217.291000,421.113892 217.931366,414.775848 
	C218.289963,411.226471 218.558487,407.667999 218.438461,404.004425 
	C216.905655,409.282928 215.372833,414.561432 213.722488,420.244659 
	C210.065002,419.298981 206.701859,418.429443 203.357864,417.564819 
	C204.631516,410.853546 205.771713,404.845581 206.918930,398.800507 
	C206.540756,398.800507 206.281403,398.732178 206.223083,398.811554 
	C205.838745,399.334778 205.497681,399.889801 204.791504,400.550507 
	C205.211395,397.445831 205.982300,394.225128 206.753220,391.004395 
z"/>
<path fill="#AB4A91" opacity="1.000000" stroke="none" 
	d="
M94.999847,204.215103 
	C95.824028,204.144730 96.710022,203.840881 97.462814,204.040176 
	C104.785553,205.978668 105.007263,205.880875 106.711479,198.362030 
	C103.124580,199.733154 100.041626,192.456207 96.406731,198.689697 
	C94.600792,198.026459 92.776169,197.356354 90.409859,196.487320 
	C92.312836,193.500763 94.076477,190.810989 95.737572,188.059311 
	C96.065567,187.515976 95.881126,186.685730 96.135033,186.071274 
	C97.121185,183.684753 97.582634,180.321457 99.388885,179.237900 
	C101.373947,178.047089 104.624924,178.966522 108.662071,178.966522 
	C106.423210,181.874893 107.878654,185.776428 103.246574,184.576553 
	C102.787331,184.457596 101.284073,186.421249 101.159622,187.519623 
	C101.041267,188.564255 101.806068,190.161331 102.694023,190.772873 
	C104.507889,192.022125 106.665237,192.772659 108.965858,193.863647 
	C110.169434,189.123611 112.689964,189.012573 116.661392,192.327530 
	C113.516640,199.121094 110.258835,206.158920 106.708481,213.651260 
	C105.352379,214.404007 104.288826,214.702225 103.138214,214.640808 
	C100.894791,212.929276 98.698036,210.502121 96.595398,210.581100 
	C95.039368,210.639526 93.605835,213.959518 92.199753,216.093384 
	C92.570816,216.824585 92.859863,217.288925 93.472092,217.928665 
	C95.834396,221.005539 98.395309,220.207474 101.014572,219.365051 
	C100.589363,220.718948 100.146660,221.827667 99.522949,223.389740 
	C101.362541,223.679352 102.756081,223.898743 104.149628,224.118134 
	C101.229111,224.670914 98.308594,225.223694 95.135513,225.306046 
	C94.589401,224.818237 94.295837,224.800873 94.002281,224.783508 
	C86.277870,223.030289 83.717209,216.571564 88.153580,210.263672 
	C88.588165,209.645752 88.222717,208.501266 88.337074,207.615204 
	C88.667259,205.056763 88.753082,202.207672 92.866425,203.964905 
	C93.015732,206.139877 92.996979,207.561096 92.816597,209.053131 
	C92.525177,209.399185 92.395386,209.674423 92.265610,209.949661 
	C92.516273,209.640228 92.766937,209.330795 93.299805,208.836487 
	C94.054626,207.172791 94.527237,205.693939 94.999847,204.215103 
M90.041321,216.031250 
	C89.511658,216.585480 88.981995,217.139694 88.452332,217.693909 
	C88.895721,218.085678 89.339111,218.477448 89.782509,218.869202 
	C89.994873,218.050186 90.207230,217.231155 90.041321,216.031250 
z"/>
<path fill="#AD4A92" opacity="1.000000" stroke="none" 
	d="
M170.291077,132.541473 
	C172.203415,130.435623 174.071915,128.319290 176.395111,127.009384 
	C178.995483,125.543198 180.015274,124.271255 177.875916,122.118340 
	C175.934433,123.738045 174.193542,125.999161 171.923050,126.854515 
	C169.703583,127.690659 166.631241,127.857628 164.480835,126.978691 
	C158.413452,124.498741 155.414764,117.461548 157.291504,111.375397 
	C157.615189,110.325745 158.184860,108.976341 159.040085,108.529625 
	C163.303329,106.302734 167.699875,104.331062 172.423462,102.092346 
	C176.854706,109.255356 181.396255,116.683578 186.035416,124.050331 
	C187.743271,126.762321 185.923019,127.907089 184.065643,129.067780 
	C180.354446,131.386948 176.608612,133.650711 172.826294,135.968475 
	C172.008286,134.908615 171.228073,133.897736 170.291077,132.541473 
M167.612244,122.004547 
	C169.170181,121.268867 171.490723,120.918610 172.103867,119.705421 
	C172.980759,117.970459 173.261261,115.339897 172.554016,113.595543 
	C172.033447,112.311638 169.295700,110.897972 167.956268,111.224632 
	C166.113998,111.673920 163.213226,113.869400 163.340378,115.036194 
	C163.602310,117.439590 165.570206,119.657066 167.612244,122.004547 
z"/>
<path fill="#AD4891" opacity="1.000000" stroke="none" 
	d="
M204.763123,79.907318 
	C218.125168,75.981277 221.982162,79.403069 225.025345,93.964149 
	C226.856171,102.724304 224.419815,105.844475 215.474411,108.010704 
	C213.418289,108.508621 211.450562,109.441780 209.377945,109.774078 
	C208.212555,109.960915 206.342789,109.726578 205.816879,108.969185 
	C205.085739,107.916214 204.860596,106.069588 205.213333,104.779999 
	C207.117111,97.819954 205.488358,91.803123 201.055206,86.284645 
	C200.077667,85.067795 199.630249,83.425072 198.639267,81.352028 
	C200.767990,80.817780 202.561493,80.367661 204.763123,79.907318 
M211.104004,93.204071 
	C211.935745,96.297516 212.767502,99.390961 213.991104,103.941803 
	C215.986237,101.434471 218.796402,99.496170 218.762817,97.608467 
	C218.695938,93.850128 217.308945,90.025452 215.921890,86.439133 
	C215.541733,85.456230 213.226135,85.221893 211.798691,84.644051 
	C211.283859,85.959602 210.483658,87.244713 210.339111,88.599770 
	C210.209686,89.813110 210.802536,91.103500 211.104004,93.204071 
z"/>
<path fill="#AF4B93" opacity="1.000000" stroke="none" 
	d="
M357.099213,333.233765 
	C359.902466,328.877899 362.695312,324.902679 365.916840,320.317261 
	C367.837891,322.424591 369.422699,324.163086 371.287781,326.208984 
	C378.524780,324.325867 385.136139,326.651642 388.286896,332.703583 
	C391.177094,338.255066 390.113312,340.984375 384.411346,343.340057 
	C383.022369,343.913879 380.643829,344.324829 382.713837,347.130890 
	C383.250031,347.857697 381.384247,350.356476 380.542450,352.216583 
	C373.319916,347.270630 366.290131,342.573090 359.427338,337.643005 
	C358.276855,336.816528 357.850006,334.982758 357.099213,333.233765 
M373.880005,332.715210 
	C373.710815,335.069641 372.662903,337.918579 373.628540,339.634308 
	C374.528809,341.233948 378.449860,342.970520 379.493896,342.286163 
	C381.999695,340.643707 384.578918,337.648651 382.475342,334.178192 
	C380.729614,331.298187 377.662872,330.830261 373.880005,332.715210 
M366.751465,335.848297 
	C367.259613,333.859467 367.767792,331.870636 368.570740,328.727997 
	C364.847321,331.137512 364.082245,332.967041 366.751465,335.848297 
M369.555573,326.680817 
	C369.078644,327.399719 368.601746,328.118591 368.124817,328.837494 
	C368.418488,329.009979 368.712189,329.182495 369.005859,329.354980 
	C369.290680,328.730377 369.575470,328.105743 369.555573,326.680817 
z"/>
<path fill="#AC4891" opacity="1.000000" stroke="none" 
	d="
M341.299255,115.851135 
	C344.044708,118.780525 344.925140,121.738869 342.929260,125.059227 
	C340.837036,128.539902 338.051147,130.562714 333.630524,130.100830 
	C326.313660,129.336349 320.210907,121.784912 322.164368,115.179565 
	C322.539948,113.909607 324.842834,112.035736 325.592255,112.303047 
	C327.001862,112.805855 328.293243,114.508636 328.940857,116.011177 
	C329.483093,117.269135 328.573090,119.173576 329.151215,120.390175 
	C329.825897,121.809952 331.239502,123.268311 332.672302,123.808441 
	C333.720459,124.203568 336.404541,123.257874 336.462677,122.709045 
	C336.626373,121.162514 336.147644,119.302116 335.303650,117.952126 
	C334.020996,115.900513 331.581421,114.405029 330.800842,112.250336 
	C329.889130,109.733704 329.336090,106.417458 330.240356,104.069191 
	C331.604584,100.526237 335.093872,99.453308 339.057800,99.995224 
	C347.717407,101.179108 352.276001,109.403786 347.717407,116.792633 
	C346.000183,115.782066 344.267090,114.762161 342.553680,113.753838 
	C343.676086,107.159355 342.291046,105.566154 336.231628,106.559021 
	C335.317810,110.891861 338.586761,113.034370 341.299255,115.851135 
z"/>
<path fill="#AD4A92" opacity="1.000000" stroke="none" 
	d="
M394.025024,280.969360 
	C400.895630,283.037231 407.318848,285.225372 413.863678,286.952759 
	C420.002747,288.573059 420.035309,288.351807 418.345581,294.294128 
	C417.502075,297.260468 417.146301,300.443420 415.818237,303.161041 
	C415.160004,304.507935 412.801819,305.024109 411.212708,305.916138 
	C410.686707,304.516296 409.562256,303.027283 409.754913,301.734497 
	C410.204590,298.716400 411.287170,295.792664 412.109528,292.844574 
	C407.908051,290.385132 406.229187,292.253998 405.398865,296.089813 
	C404.930573,298.253113 404.145721,300.347839 403.515961,302.432159 
	C401.346222,302.143097 399.785889,301.935211 397.579620,301.641296 
	C398.575806,297.510254 399.517120,293.606781 400.529938,289.406891 
	C399.015991,288.938843 397.392548,288.436920 395.579224,287.876312 
	C394.259796,292.135406 393.026550,296.116241 391.682831,300.453766 
	C389.509430,299.795166 387.721283,299.253326 385.707672,298.643127 
	C387.366638,292.790039 388.870789,287.454102 390.394348,282.123688 
	C390.914551,280.303680 391.641815,278.913452 394.025024,280.969360 
z"/>
<path fill="#AD4C92" opacity="1.000000" stroke="none" 
	d="
M299.058716,407.922058 
	C293.361053,406.362610 289.194305,403.797455 289.463104,397.368378 
	C291.053589,396.800385 292.680603,396.219360 295.048523,395.373749 
	C292.715973,394.608398 291.087982,394.074249 288.229340,393.136322 
	C289.423981,391.043884 290.095917,388.135803 291.850464,387.145203 
	C295.814697,384.906921 300.512573,383.340790 304.767120,386.355408 
	C308.622742,389.087311 311.570709,393.151337 310.753052,398.018127 
	C309.886475,403.176361 306.487305,406.745209 300.741455,407.203552 
	C300.294708,407.239197 299.879364,407.668427 299.058716,407.922058 
z"/>
<path fill="#AD4C92" opacity="1.000000" stroke="none" 
	d="
M317.547424,376.228668 
	C323.497406,373.712769 327.642792,375.186615 331.372467,380.848938 
	C334.565491,385.696564 334.129120,390.416901 330.124420,394.347961 
	C326.324860,398.077759 320.135040,398.574310 315.934418,395.486420 
	C312.170929,392.719910 312.219940,389.456421 315.960114,386.720825 
	C314.392700,385.866913 312.782654,384.989746 311.172607,384.112610 
	C313.177032,381.540161 315.181458,378.967712 317.547424,376.228668 
z"/>
<path fill="#AD4A92" opacity="1.000000" stroke="none" 
	d="
M101.009918,231.054901 
	C105.354362,232.487793 105.878662,235.986786 105.907715,239.350143 
	C105.944557,243.617706 103.497993,246.711899 99.761398,248.587463 
	C94.867226,251.044067 89.270981,249.912033 85.364525,245.909760 
	C82.365982,242.837677 82.221970,237.506653 84.702667,232.619171 
	C87.434784,227.236328 92.068100,229.168808 97.027756,229.231445 
	C96.781662,233.822495 96.541771,238.297989 96.273468,243.303589 
	C99.351974,241.424637 100.096077,239.341888 99.001968,236.394562 
	C98.223946,234.298721 97.129967,231.931656 101.009918,231.054901 
z"/>
<path fill="#AD4C92" opacity="1.000000" stroke="none" 
	d="
M117.055733,316.910187 
	C113.672668,321.133667 109.204269,323.515015 104.480049,322.517273 
	C99.766083,321.521698 95.605553,318.191223 95.903709,312.527008 
	C96.059692,309.563751 97.093697,306.217072 98.842354,303.872253 
	C101.213715,300.692474 105.355583,301.855743 106.905022,305.555481 
	C108.027634,308.236053 109.208076,310.892792 110.411079,313.538208 
	C110.487633,313.706543 110.982666,313.684570 113.003777,314.132446 
	C111.594467,311.093109 110.565079,308.962494 109.615807,306.796753 
	C108.897011,305.156830 108.280403,303.472137 107.427399,301.327332 
	C112.072586,300.694153 114.158669,302.349976 116.255508,305.381958 
	C118.877052,309.172699 119.853149,312.567810 117.055733,316.910187 
z"/>
<path fill="#AC4891" opacity="1.000000" stroke="none" 
	d="
M248.975479,92.808792 
	C249.701187,95.045074 250.559662,96.781235 251.091003,98.612305 
	C251.472473,99.926849 251.848160,102.426369 251.483597,102.574982 
	C249.628159,103.331352 247.034622,104.407089 245.635696,103.647293 
	C243.607010,102.545448 242.872131,102.803116 241.191284,104.084129 
	C238.181213,106.378181 233.352341,105.082512 230.175735,101.638344 
	C226.944153,98.134575 226.262863,91.702644 228.948502,87.099266 
	C231.375336,82.939484 235.045090,81.946762 239.488571,83.794891 
	C239.783966,83.917755 240.126846,83.975243 240.448502,83.978546 
	C243.108902,84.005859 247.002289,82.967499 248.122162,84.287735 
	C249.565765,85.989624 248.788818,89.575058 248.975479,92.808792 
M238.396301,88.102348 
	C237.475555,88.425949 235.837219,88.619362 235.751022,89.094391 
	C235.210190,92.075188 235.015091,95.118713 234.705612,98.141487 
	C236.979462,97.955124 239.720200,98.503281 241.424118,97.420265 
	C244.415787,95.518745 243.355927,91.894958 238.396301,88.102348 
z"/>
<path fill="#AB4A91" opacity="1.000000" stroke="none" 
	d="
M375.674377,165.637177 
	C379.809967,161.876511 384.290131,159.052094 389.288849,162.280075 
	C393.041534,164.703415 397.327637,168.058609 395.771637,173.428268 
	C394.806488,176.758942 392.084442,179.580521 389.359863,183.878662 
	C385.788177,178.147888 383.255157,174.083649 380.690735,169.968964 
	C376.953949,175.981445 385.265198,177.762802 384.857666,182.717316 
	C380.270782,184.042007 377.190002,181.543320 375.031433,178.142242 
	C372.527832,174.197449 371.657654,169.890335 375.674377,165.637177 
z"/>
<path fill="#AB4A91" opacity="1.000000" stroke="none" 
	d="
M145.219955,384.235382 
	C146.548828,382.586426 147.653656,381.212128 148.889877,379.674377 
	C139.508041,377.117798 137.756302,372.786041 142.908310,365.188965 
	C145.166458,361.859100 147.921707,358.866333 150.941589,355.110657 
	C152.543930,356.908905 153.809433,358.329132 155.277222,359.976410 
	C152.934402,362.747894 150.315277,365.119904 148.687912,368.043884 
	C147.712891,369.795715 148.288345,372.410431 148.166916,374.637329 
	C150.244492,374.142456 152.837555,374.254181 154.288177,373.021515 
	C156.988937,370.726440 159.024490,367.648590 161.315445,364.922119 
	C166.448959,368.105621 166.381348,368.412750 162.999817,372.470306 
	C157.992401,378.478760 153.224625,384.687012 148.323334,390.849762 
	C145.049408,389.973389 142.011627,388.871735 145.219955,384.235382 
z"/>
<path fill="#AD4A92" opacity="1.000000" stroke="none" 
	d="
M277.161255,94.745384 
	C281.533112,85.941681 284.732880,85.189827 293.523773,89.752937 
	C295.244720,90.646233 297.826294,89.881516 300.382599,89.881516 
	C299.174774,97.480392 298.068329,104.441345 296.865295,112.010239 
	C294.508148,110.860558 292.324738,109.795601 289.350403,108.344887 
	C283.791870,111.161560 276.935303,107.136459 276.944885,99.628326 
	C276.946777,98.136360 277.024323,96.644501 277.161255,94.745384 
M290.029266,102.495094 
	C290.690735,100.869453 291.762146,99.274727 291.887817,97.608673 
	C291.993927,96.201935 291.220581,93.627838 290.454742,93.474304 
	C288.575470,93.097527 285.245514,93.193672 284.719147,94.228615 
	C283.596405,96.436119 283.123962,99.579132 283.804382,101.927628 
	C284.475403,104.243721 287.092529,104.985161 290.029266,102.495094 
z"/>
<path fill="#AD4891" opacity="1.000000" stroke="none" 
	d="
M403.021973,247.104462 
	C402.598846,244.268448 402.178894,241.868851 401.758942,239.469269 
	C401.295593,239.450729 400.832245,239.432175 400.368896,239.413635 
	C400.257446,241.810974 400.295563,244.228424 399.976868,246.597885 
	C399.793793,247.959030 399.032257,249.242371 398.531128,250.560730 
	C397.030151,249.781372 394.897797,249.387848 394.142853,248.152557 
	C391.553070,243.914825 393.727570,236.110458 397.666962,234.160980 
	C404.554535,230.752548 412.953644,233.500458 415.433472,239.973587 
	C417.521271,245.423447 414.578644,251.041672 408.525696,253.162247 
	C403.755341,254.833466 403.113678,254.177750 403.021973,247.104462 
z"/>
<path fill="#AC4891" opacity="1.000000" stroke="none" 
	d="
M206.722397,390.667542 
	C205.982300,394.225128 205.211395,397.445831 204.643402,400.841370 
	C199.302887,408.177277 196.658813,408.619202 190.038956,403.544098 
	C189.447723,403.090851 188.728134,402.608215 188.024368,402.529297 
	C181.596619,401.807770 181.739105,401.688354 183.973633,395.579803 
	C185.638870,391.027557 186.431519,386.156128 187.746506,380.891418 
	C188.892685,381.287354 190.184570,381.720337 191.467102,382.179443 
	C194.125504,383.131165 196.934433,383.808716 199.391922,385.135345 
	C201.999969,386.543243 204.272522,388.572662 206.722397,390.667542 
M200.930389,392.810577 
	C199.396606,390.058929 196.666992,388.800476 194.369232,390.579041 
	C192.608200,391.942108 191.924164,394.942749 191.300674,397.354553 
	C191.146729,397.950043 192.958542,399.578796 194.095413,399.885895 
	C197.722046,400.865601 199.528900,398.498810 200.746567,395.542389 
	C200.986893,394.958862 200.928497,394.252289 200.930389,392.810577 
z"/>
<path fill="#AB4A91" opacity="1.000000" stroke="none" 
	d="
M118.402863,360.173401 
	C120.921143,358.831116 123.597672,358.166199 125.177063,356.476013 
	C128.294250,353.140228 130.803619,349.236511 133.564346,345.567627 
	C134.079788,345.957336 134.595230,346.347076 135.110657,346.736786 
	C134.449127,346.031525 133.508072,345.430878 133.195175,344.595093 
	C132.782928,343.493927 132.864120,342.208008 132.733170,341.001526 
	C134.384552,341.049011 136.623672,340.429718 137.576599,341.269623 
	C140.382034,343.742371 142.868668,346.653778 145.086075,349.681946 
	C146.086655,351.048401 147.103577,353.682434 146.461868,354.727081 
	C144.680405,357.627136 142.906860,355.305298 141.351135,353.853333 
	C140.864975,353.399597 140.373322,352.951721 139.665924,352.300171 
	C138.032196,353.433929 136.020813,354.325653 134.800232,355.850433 
	C133.957642,356.903015 133.451309,359.421661 134.106644,360.261627 
	C136.478180,363.301392 134.982162,364.955017 132.427994,366.769806 
	C130.574203,365.025543 128.685577,363.248505 126.205490,360.914948 
	C126.150055,365.548309 124.811455,369.171509 120.074234,367.751434 
	C116.628304,366.718445 117.034599,363.333984 118.402863,360.173401 
z"/>
<path fill="#AC4891" opacity="1.000000" stroke="none" 
	d="
M259.983337,81.833527 
	C260.756653,79.660492 261.111420,77.578209 261.471680,75.496918 
	C266.861328,74.674156 266.861328,74.674156 267.079071,82.223610 
	C269.645874,84.295486 271.770874,86.010757 273.895874,87.726028 
	C271.504211,88.735451 269.112549,89.744873 266.214050,90.968224 
	C266.214050,92.936302 266.214050,96.218430 266.214050,99.765381 
	C268.035095,99.939865 269.632172,100.092880 271.557709,100.277374 
	C271.557709,101.966583 271.557709,103.609955 271.557709,105.277519 
	C257.829102,104.294693 256.959930,103.123665 259.814941,89.772224 
	C258.019379,87.824135 252.391907,89.330414 254.355347,83.619347 
	C255.921371,83.109787 257.743073,82.517044 259.983337,81.833527 
z"/>
<path fill="#AC4C92" opacity="1.000000" stroke="none" 
	d="
M107.888458,336.736633 
	C106.219040,331.978546 106.731010,328.475067 111.364403,326.104187 
	C114.105858,324.701385 116.377083,322.343475 119.160583,321.075409 
	C120.404419,320.508759 122.943504,321.020386 123.911995,322.007172 
	C125.574669,323.701294 124.900650,325.317932 122.429047,326.410553 
	C120.089439,327.444794 117.628174,328.844666 116.056923,330.767334 
	C114.864220,332.226837 114.984642,334.759430 114.520782,336.814514 
	C116.580315,336.818726 118.749107,337.227631 120.667648,336.709625 
	C122.469383,336.223175 124.215118,334.981903 125.619171,333.678223 
	C129.063858,330.479767 130.971329,332.053284 132.791504,336.368744 
	C127.666016,339.621521 122.438049,343.108215 116.988358,346.204712 
	C116.223915,346.639099 113.164635,345.028656 113.212883,344.589417 
	C113.672005,340.409698 109.278534,339.861206 107.888458,336.736633 
z"/>
<path fill="#AC4C92" opacity="1.000000" stroke="none" 
	d="
M161.071625,382.350281 
	C164.306198,381.670746 167.667282,380.783569 168.176300,385.905884 
	C168.314636,387.298096 170.389465,388.497864 171.575531,389.785950 
	C173.704239,387.782104 176.080414,385.952606 177.730011,383.611206 
	C178.021622,383.197327 175.414078,380.494537 173.872971,379.164246 
	C173.304245,378.673279 171.712921,378.712524 170.994781,379.161102 
	C167.728210,381.201660 165.663101,379.550995 165.277512,376.684540 
	C165.143692,375.689819 168.242722,373.417633 170.074875,373.146637 
	C178.074570,371.963409 183.466904,377.167053 184.022339,382.801483 
	C184.652252,389.191437 179.616257,394.844971 173.488495,395.052216 
	C165.399719,395.325775 161.062637,391.038452 161.071625,382.350281 
z"/>
<path fill="#AB4A91" opacity="1.000000" stroke="none" 
	d="
M397.022095,217.411011 
	C396.746735,220.682220 397.421326,222.857391 400.417053,224.206284 
	C401.281738,224.595642 401.332214,226.793335 401.755981,228.161987 
	C400.585754,228.469803 399.296143,229.258026 398.266083,229.001984 
	C393.873077,227.910049 389.649506,222.407806 390.156433,217.948227 
	C390.671234,213.419724 392.776581,209.647751 397.621277,208.203308 
	C402.411133,206.775253 408.027252,208.494202 410.687134,212.216858 
	C415.063965,218.342346 414.892273,222.335495 409.722626,226.578827 
	C408.816620,227.322510 407.032501,226.996368 405.653900,227.164276 
	C405.480011,225.590866 405.003967,223.973862 405.222778,222.457123 
	C405.416077,221.117493 407.052032,219.771423 406.851807,218.640472 
	C406.559845,216.991287 405.552307,214.791916 404.212433,214.142731 
	C401.206482,212.686310 398.669647,214.107208 397.022095,217.411011 
z"/>
<path fill="#AD4A92" opacity="1.000000" stroke="none" 
	d="
M282.321686,399.735718 
	C282.794189,401.886047 283.059998,403.668427 283.325836,405.450775 
	C283.611603,405.240875 283.897369,405.030945 284.183167,404.821045 
	C285.420685,406.332123 286.658173,407.843201 287.895691,409.354309 
	C286.069061,410.217834 284.308807,411.292755 282.399261,411.892151 
	C279.928162,412.667786 277.265839,412.848328 274.814056,413.668396 
	C269.621063,415.405304 267.432220,414.007996 264.386169,406.390564 
	C267.003815,405.315918 269.589722,402.736938 271.512665,407.489197 
	C271.686371,407.918518 274.023804,408.130981 274.560150,407.615570 
	C275.624451,406.592865 276.698364,405.007996 276.737915,403.625977 
	C276.796356,401.582886 275.956573,399.514130 275.432892,397.157654 
	C272.750488,397.943787 269.450104,398.996246 270.594818,393.887970 
	C270.754944,393.173462 271.404053,392.170929 272.007111,392.019409 
	C275.297638,391.192505 278.622864,390.341553 281.984131,390.048340 
	C283.126190,389.948700 284.902771,391.201416 285.456451,392.304474 
	C285.842560,393.073700 284.705109,394.672394 284.129272,395.842010 
	C283.532593,397.054047 282.792419,398.195435 282.321686,399.735718 
z"/>
<path fill="#AC4891" opacity="1.000000" stroke="none" 
	d="
M392.381989,191.293472 
	C390.063568,192.285873 388.152069,193.481552 386.117645,193.751694 
	C384.971558,193.903885 383.002838,192.796082 382.558960,191.760956 
	C382.195190,190.912521 383.225677,188.932129 384.199158,188.173050 
	C385.563965,187.108826 387.427307,186.651443 389.116119,186.041763 
	C393.089874,184.607224 397.086578,183.236282 401.780762,181.592056 
	C402.264862,183.733215 402.613251,185.645935 403.153015,187.503052 
	C403.417389,188.412567 403.869110,189.386292 404.524109,190.044083 
	C408.343292,193.879547 407.867493,199.378616 403.030853,201.963226 
	C399.311951,203.950500 395.296173,205.485748 391.254456,206.693359 
	C390.228180,207.000000 388.600189,205.292633 387.248718,204.510681 
	C387.972809,203.318863 388.418304,201.618759 389.477448,201.038239 
	C391.883026,199.719772 394.888397,199.370911 397.073181,197.816986 
	C398.600403,196.730743 400.202026,194.151245 399.960114,192.504654 
	C399.439514,188.960831 396.691254,189.639938 394.209015,190.874008 
	C393.784424,191.085098 393.231232,191.037582 392.381989,191.293472 
z"/>
<path fill="#AC4891" opacity="1.000000" stroke="none" 
	d="
M353.967346,127.986069 
	C351.945435,129.604202 349.852997,130.967438 348.785095,132.897522 
	C347.177429,135.803253 349.960449,139.765869 353.136078,138.705841 
	C357.849915,137.132339 358.200378,140.230576 359.567993,142.759506 
	C354.641022,147.013062 348.754578,145.167084 344.437836,139.971695 
	C341.325073,136.225342 341.048462,130.933792 344.109100,127.416252 
	C348.211700,122.701233 354.745270,121.252480 359.338440,124.039314 
	C365.060822,127.511292 366.442871,132.359146 363.488220,138.960922 
	C360.607025,138.041397 358.281799,137.243698 358.744446,133.055023 
	C358.911224,131.545013 355.910583,129.685135 353.967346,127.986069 
z"/>
<path fill="#AC4C92" opacity="1.000000" stroke="none" 
	d="
M342.337433,377.721741 
	C344.096039,377.405182 346.073273,377.212524 346.972290,376.126923 
	C347.712372,375.233246 347.750275,372.926208 347.096039,371.862823 
	C344.982880,368.428131 342.406769,365.278259 339.865967,361.824127 
	C341.253296,360.885437 342.550323,360.007812 344.473999,358.706207 
	C348.859711,364.288788 353.232239,369.854584 357.775421,375.637604 
	C355.828979,376.755066 353.883728,377.871857 351.841125,379.044495 
	C349.837463,380.802887 347.722137,384.124695 345.191040,384.479340 
	C342.516754,384.854095 339.022247,382.929596 336.666046,381.037933 
	C334.222473,379.076111 332.440155,376.096100 330.925903,373.263489 
	C330.285767,372.066010 331.070251,370.107056 331.207184,368.494202 
	C332.565247,368.908295 334.290771,368.936127 335.210480,369.811035 
	C337.687195,372.167358 339.820190,374.885040 342.337433,377.721741 
z"/>
<path fill="#AB4A91" opacity="1.000000" stroke="none" 
	d="
M155.944580,133.061203 
	C153.943939,130.664932 152.132446,128.482849 150.015335,126.654640 
	C149.089371,125.855026 147.058899,125.071442 146.378464,125.532570 
	C145.221252,126.316849 143.803085,128.423111 144.145874,129.386047 
	C145.085693,132.026215 146.514450,134.705948 148.418625,136.745453 
	C152.602570,141.226776 152.770889,141.069626 147.942642,144.893280 
	C143.321991,139.673035 138.699615,134.450851 134.169907,129.333374 
	C137.400558,126.148361 140.462738,122.807579 143.873856,119.872299 
	C146.422409,117.679260 151.468536,119.071846 154.071808,122.186005 
	C156.900131,125.569405 159.795715,128.896576 162.833618,132.448990 
	C161.738602,133.670013 160.683960,134.846008 159.286850,136.403900 
	C158.096680,135.319931 157.053146,134.369522 155.944580,133.061203 
z"/>
<path fill="#AB4A91" opacity="1.000000" stroke="none" 
	d="
M109.353859,175.733032 
	C106.759705,173.992783 104.465134,172.466599 102.822983,171.374359 
	C104.650284,167.359467 106.228928,163.848877 107.843948,160.355118 
	C109.254517,157.303665 113.493111,155.949600 117.153069,157.680161 
	C120.375580,159.203903 123.394897,161.153061 126.531494,162.863831 
	C131.396744,165.517456 131.466339,165.997025 127.137436,169.971497 
	C123.891930,168.025101 120.685341,165.781525 117.187759,164.169189 
	C115.870064,163.561737 113.301590,163.802719 112.313507,164.731567 
	C110.228233,166.691788 110.741699,169.224380 113.057266,170.923477 
	C114.873650,172.256302 116.920273,173.300446 118.938087,174.328629 
	C123.642998,176.726074 123.831528,177.617798 120.258339,181.882004 
	C116.731956,179.908508 113.192696,177.927811 109.353859,175.733032 
z"/>
<path fill="#AB4A91" opacity="1.000000" stroke="none" 
	d="
M394.891479,317.672668 
	C395.313934,314.337158 394.118164,312.737793 391.181183,311.875885 
	C388.724426,311.154877 386.326324,309.925171 384.222778,308.460388 
	C383.375000,307.870056 382.693787,305.434143 383.148254,304.929810 
	C383.976593,304.010590 386.002258,303.178009 387.013550,303.585815 
	C391.668579,305.463165 396.219849,307.645111 400.631989,310.042419 
	C401.663208,310.602722 402.783203,312.632050 402.521454,313.635864 
	C401.713684,316.734100 400.684204,319.952972 398.912079,322.562103 
	C397.611664,324.476807 394.591125,327.060394 393.059906,326.649902 
	C387.636444,325.195984 382.492859,322.651123 377.340820,320.305328 
	C376.838898,320.076782 376.602020,318.158051 376.988434,317.408813 
	C377.350372,316.707001 378.891205,315.961182 379.588104,316.196747 
	C382.646729,317.230438 385.676086,318.440765 388.545959,319.917633 
	C391.412384,321.392822 393.531067,321.355713 394.891479,317.672668 
z"/>
<path fill="#AD4C92" opacity="1.000000" stroke="none" 
	d="
M369.159393,365.925842 
	C367.095612,364.799774 364.807739,363.946564 363.022858,362.480804 
	C360.616180,360.504425 358.596710,358.056549 355.272217,354.640930 
	C354.394623,356.223267 353.966003,358.091644 353.052246,358.370544 
	C351.868744,358.731812 349.942688,358.205139 349.015503,357.336090 
	C348.362396,356.723938 348.290192,354.437286 348.910492,353.708557 
	C351.274689,350.931061 354.223785,348.650726 356.582062,345.869019 
	C359.684784,342.209229 362.210876,342.276794 364.602325,346.432129 
	C360.117920,351.136963 359.997772,352.651184 364.383453,355.812164 
	C365.291199,356.466431 367.221039,356.658661 368.168976,356.136475 
	C372.392334,353.809937 372.325348,353.688324 376.525513,358.206635 
	C374.430084,359.914825 372.286224,361.662476 370.076294,363.704681 
	C370.010223,363.999207 370.058868,363.925842 369.673218,364.087891 
	C369.186279,364.861847 369.085022,365.473785 369.031677,366.050140 
	C369.079559,366.014557 369.159393,365.925842 369.159393,365.925842 
z"/>
<path fill="#AD4C92" opacity="1.000000" stroke="none" 
	d="
M197.704544,120.683334 
	C196.132950,120.282776 194.109009,120.000381 193.687012,119.024956 
	C188.757431,107.630173 184.025345,96.148552 179.407303,84.623276 
	C179.073273,83.789627 180.033081,82.437553 180.391312,81.326515 
	C181.925385,81.851585 184.268341,81.932999 184.844498,82.983459 
	C186.702621,86.371307 187.888657,90.124855 189.372910,93.721283 
	C192.463959,101.211113 195.671112,108.655418 198.590561,116.211159 
	C199.043167,117.382553 198.226212,119.044487 197.704544,120.683334 
z"/>
<path fill="#AD4C92" opacity="1.000000" stroke="none" 
	d="
M379.967590,144.855896 
	C381.220337,151.174179 374.643341,151.542862 372.159027,155.030365 
	C371.376068,156.129517 369.957062,156.775604 368.580933,157.816910 
	C369.940338,159.395386 370.982086,160.605042 372.252838,162.080551 
	C369.827332,164.712723 368.282104,167.183655 365.404755,162.172684 
	C363.010040,158.002213 359.267212,154.605835 355.954285,150.667786 
	C357.680847,149.621841 359.111237,148.755325 360.489227,147.920563 
	C365.530823,153.221268 365.966705,153.155350 372.047668,146.178696 
	C371.422729,145.370804 370.321442,144.566711 370.196594,143.632156 
	C370.032928,142.407150 370.288605,140.772293 371.043976,139.908188 
	C371.513245,139.371323 373.619019,139.488220 374.332611,140.090652 
	C376.291931,141.744781 377.904022,143.810211 379.850159,145.331177 
	C380.046753,144.949509 379.967590,144.855896 379.967590,144.855896 
z"/>
<path fill="#AC4891" opacity="1.000000" stroke="none" 
	d="
M127.114777,140.953949 
	C129.511093,142.896561 131.806046,144.989899 134.355576,146.704712 
	C135.322083,147.354767 137.758835,147.667679 138.026062,147.226364 
	C141.145218,142.075180 142.512390,146.949829 144.868576,148.241455 
	C141.008377,152.878937 137.293564,157.341766 132.905701,162.613144 
	C131.808167,160.754242 130.759247,158.977646 129.599930,157.014069 
	C130.270523,156.302994 131.505432,154.993515 132.728760,153.696320 
	C126.800262,146.387421 125.586967,146.076447 122.012680,151.267151 
	C120.387238,150.392792 118.722099,149.497070 116.518036,148.311447 
	C117.899185,146.837311 119.095818,145.560135 120.923981,144.032898 
	C123.408600,142.839874 125.261688,141.896912 127.114777,140.953949 
z"/>
<path fill="#AE4492" opacity="1.000000" stroke="none" 
	d="
M81.993439,269.200928 
	C82.434677,269.145508 82.875908,269.090088 83.974014,269.111816 
	C87.055000,269.121185 89.520676,269.305725 91.891533,268.914917 
	C94.272789,268.522461 96.559570,267.556793 98.887749,266.842316 
	C99.029442,263.856750 99.109764,260.866455 99.341522,257.887878 
	C99.441109,256.607971 99.855026,255.352524 100.126129,254.085968 
	C101.404305,254.790329 103.191383,255.189224 103.840683,256.271027 
	C104.800934,257.870911 104.926971,259.963226 105.453659,261.833069 
	C107.832497,270.278259 106.202057,272.584106 97.614380,273.000275 
	C96.670845,273.045990 95.744087,273.438141 94.181381,273.485840 
	C90.873100,273.069061 88.196739,272.762207 85.511719,272.626099 
	C83.294304,272.513672 81.066658,272.603119 78.843552,272.603119 
	C78.804497,272.081177 78.765442,271.559204 78.726387,271.037262 
	C79.815407,270.425140 80.904427,269.813019 81.993439,269.200928 
z"/>
<path fill="#A03E84" opacity="1.000000" stroke="none" 
	d="
M252.972931,388.022522 
	C253.306931,393.042755 253.640945,398.062988 253.614731,403.840088 
	C253.183044,410.048035 253.214981,415.503296 252.995956,420.948456 
	C252.888382,423.622772 252.315582,426.278412 251.962982,428.477905 
	C251.972656,415.560883 251.972656,403.108459 251.972656,390.656067 
	C251.335434,390.655212 250.698212,390.654358 250.060989,390.653503 
	C250.060989,403.421143 250.060989,416.188782 249.701141,428.724854 
	C249.114151,416.196991 248.923309,403.899811 248.635300,391.604919 
	C248.559952,388.388641 250.095474,387.482788 252.972931,388.022522 
z"/>
<path fill="#D9A5CB" opacity="1.000000" stroke="none" 
	d="
M252.798935,387.644501 
	C250.095474,387.482788 248.559952,388.388641 248.635300,391.604919 
	C248.923309,403.899811 249.114151,416.196991 250.015656,428.756714 
	C251.111115,428.994232 251.532211,428.968353 251.953308,428.942505 
	C252.315582,426.278412 252.888382,423.622772 252.995956,420.948456 
	C253.214981,415.503296 253.183044,410.048035 253.559845,404.304230 
	C253.865189,412.454956 253.865189,420.898407 253.865189,429.749481 
	C252.122696,429.860718 250.389587,429.971344 248.316162,430.103729 
	C248.316162,415.773499 248.316162,401.595032 248.316162,387.266479 
	C249.758392,387.266479 251.191681,387.266479 252.798935,387.644501 
z"/>
<path fill="#AD4C92" opacity="1.000000" stroke="none" 
	d="
M126.975227,140.638672 
	C125.261688,141.896912 123.408600,142.839874 121.219574,143.868988 
	C121.040794,143.168655 121.197937,142.382187 121.415565,141.293045 
	C117.737389,141.867599 114.437080,141.013199 114.365517,136.613998 
	C114.346069,135.418488 116.650002,133.383774 118.126907,133.130676 
	C121.289459,132.588730 122.957024,134.909271 123.128548,138.742706 
	C124.463661,139.311981 125.649673,139.817688 126.975227,140.638672 
z"/>
<path fill="#AB4A91" opacity="1.000000" stroke="none" 
	d="
M369.979492,364.030701 
	C372.138977,364.367767 374.596893,364.185455 376.409241,365.179779 
	C377.349579,365.695679 377.942963,368.858429 377.265869,369.810760 
	C376.369934,371.070953 373.492584,372.357758 372.515442,371.799072 
	C370.923950,370.889160 370.181396,368.494446 369.119995,366.326080 
	C369.159393,365.925842 369.079559,366.014557 369.333618,365.919464 
	C369.744751,365.191528 369.901794,364.558685 370.058868,363.925842 
	C370.058868,363.925842 370.010223,363.999207 369.979492,364.030701 
z"/>
<path fill="#AC4C92" opacity="1.000000" stroke="none" 
	d="
M380.093689,144.988892 
	C379.514496,142.408005 377.428680,139.128754 381.845123,138.180618 
	C383.492401,137.826981 385.852356,139.054108 387.291687,140.267181 
	C387.929260,140.804520 387.499939,144.131592 386.837921,144.395798 
	C384.993469,145.131912 382.773865,144.928070 380.335022,144.975647 
	C379.967590,144.855896 380.046753,144.949509 380.093689,144.988892 
z"/>
<path fill="#AD4A92" opacity="1.000000" stroke="none" 
	d="
M104.504875,224.089874 
	C102.756081,223.898743 101.362541,223.679352 99.522949,223.389740 
	C100.146660,221.827667 100.589363,220.718948 101.310944,219.181946 
	C102.134964,217.502594 102.680122,216.251511 103.225273,215.000458 
	C104.288826,214.702225 105.352379,214.404007 106.737083,214.024826 
	C107.058243,213.943863 107.016090,213.985321 107.029297,214.343628 
	C107.380852,216.141891 107.719208,217.581879 108.057556,219.021851 
	C106.991745,220.701782 105.925934,222.381699 104.504875,224.089874 
z"/>
<path fill="#A03E84" opacity="1.000000" stroke="none" 
	d="
M81.630127,269.106506 
	C80.904427,269.813019 79.815407,270.425140 78.726387,271.037262 
	C78.765442,271.559204 78.804497,272.081177 78.843552,272.603119 
	C81.066658,272.603119 83.294304,272.513672 85.511719,272.626099 
	C88.196739,272.762207 90.873100,273.069061 93.780746,273.584869 
	C89.471046,274.246216 84.938004,274.788300 80.394035,274.904877 
	C79.007996,274.940430 77.218864,274.129242 76.319366,273.093536 
	C75.708908,272.390625 75.937775,269.734619 76.472282,269.499359 
	C77.871010,268.883789 79.643379,269.117126 81.630127,269.106506 
z"/>
<path fill="#A03E84" opacity="1.000000" stroke="none" 
	d="
M98.450104,266.879028 
	C96.559570,267.556793 94.272789,268.522461 91.891533,268.914917 
	C89.520676,269.305725 87.055000,269.121185 84.304398,269.061829 
	C88.656082,268.261749 93.334267,267.588745 98.450104,266.879028 
z"/>
<path fill="#AD4A92" opacity="1.000000" stroke="none" 
	d="
M94.675972,204.149826 
	C94.527237,205.693939 94.054626,207.172791 93.290619,208.826080 
	C92.999229,209.000534 92.978233,208.982300 92.978226,208.982300 
	C92.996979,207.561096 93.015732,206.139877 93.043793,204.292511 
	C93.486115,203.939072 93.919113,204.011810 94.675972,204.149826 
z"/>
<path fill="#AB4A91" opacity="1.000000" stroke="none" 
	d="
M108.363022,218.845367 
	C107.719208,217.581879 107.380852,216.141891 107.046867,214.320984 
	C107.590317,215.516327 108.129402,217.092621 108.363022,218.845367 
z"/>
<path fill="#AD4A92" opacity="1.000000" stroke="none" 
	d="
M94.239914,224.864105 
	C94.295837,224.800873 94.589401,224.818237 94.917557,224.971725 
	C94.793953,225.053467 94.635750,224.999084 94.239914,224.864105 
z"/>
<path fill="#000000" opacity="1.000000" stroke="none" 
	d="
M103.138214,214.640793 
	C102.680122,216.251511 102.134964,217.502594 101.293442,218.936768 
	C98.395309,220.207474 95.834396,221.005539 93.454437,217.629242 
	C92.781639,216.711792 92.449684,216.269150 92.117729,215.826508 
	C93.605835,213.959518 95.039368,210.639526 96.595398,210.581100 
	C98.698036,210.502121 100.894791,212.929276 103.138214,214.640793 
z"/>
<path fill="#AD4A92" opacity="1.000000" stroke="none" 
	d="
M90.230453,216.221695 
	C90.207230,217.231155 89.994873,218.050186 89.782501,218.869202 
	C89.339111,218.477448 88.895721,218.085678 88.452332,217.693909 
	C88.981995,217.139694 89.511658,216.585480 90.230453,216.221695 
z"/>
<path fill="#AD4A92" opacity="1.000000" stroke="none" 
	d="
M93.008415,209.010956 
	C92.766937,209.330795 92.516273,209.640228 92.265610,209.949661 
	C92.395386,209.674423 92.525177,209.399185 92.816605,209.053131 
	C92.978233,208.982300 92.999229,209.000534 93.008415,209.010956 
z"/>
<path fill="#AD4A92" opacity="1.000000" stroke="none" 
	d="
M92.199753,216.093384 
	C92.449684,216.269150 92.781639,216.711792 93.131248,217.453842 
	C92.859863,217.288925 92.570816,216.824585 92.199753,216.093384 
z"/>
<path fill="#000000" opacity="1.000000" stroke="none" 
	d="
M167.224197,121.977798 
	C165.570206,119.657066 163.602310,117.439590 163.340378,115.036194 
	C163.213226,113.869400 166.113998,111.673920 167.956268,111.224632 
	C169.295700,110.897972 172.033447,112.311638 172.554016,113.595543 
	C173.261261,115.339897 172.980759,117.970459 172.103867,119.705421 
	C171.490723,120.918610 169.170181,121.268867 167.224197,121.977798 
z"/>
<path fill="#000000" opacity="1.000000" stroke="none" 
	d="
M211.090363,92.781982 
	C210.802536,91.103500 210.209686,89.813110 210.339111,88.599770 
	C210.483658,87.244713 211.283859,85.959602 211.798691,84.644051 
	C213.226135,85.221893 215.541733,85.456230 215.921890,86.439133 
	C217.308945,90.025452 218.695938,93.850128 218.762817,97.608467 
	C218.796402,99.496170 215.986237,101.434471 213.991104,103.941803 
	C212.767502,99.390961 211.935745,96.297516 211.090363,92.781982 
z"/>
<path fill="#000000" opacity="1.000000" stroke="none" 
	d="
M374.185577,332.454773 
	C377.662872,330.830261 380.729614,331.298187 382.475342,334.178192 
	C384.578918,337.648651 381.999695,340.643707 379.493896,342.286163 
	C378.449860,342.970520 374.528809,341.233948 373.628540,339.634308 
	C372.662903,337.918579 373.710815,335.069641 374.185577,332.454773 
z"/>
<path fill="#000000" opacity="1.000000" stroke="none" 
	d="
M366.389679,335.656616 
	C364.082245,332.967041 364.847321,331.137512 368.570740,328.727997 
	C367.767792,331.870636 367.259613,333.859467 366.389679,335.656616 
z"/>
<path fill="#000000" opacity="1.000000" stroke="none" 
	d="
M369.707947,327.080994 
	C369.575470,328.105743 369.290680,328.730377 369.005859,329.354980 
	C368.712189,329.182495 368.418488,329.009979 368.124817,328.837494 
	C368.601746,328.118591 369.078644,327.399719 369.707947,327.080994 
z"/>
<path fill="#000000" opacity="1.000000" stroke="none" 
	d="
M238.790359,88.113174 
	C243.355927,91.894958 244.415787,95.518745 241.424118,97.420265 
	C239.720200,98.503281 236.979462,97.955124 234.705597,98.141487 
	C235.015091,95.118713 235.210190,92.075188 235.751022,89.094391 
	C235.837219,88.619362 237.475555,88.425949 238.790359,88.113174 
z"/>
<path fill="#000000" opacity="1.000000" stroke="none" 
	d="
M289.749146,102.780106 
	C287.092529,104.985161 284.475403,104.243721 283.804382,101.927628 
	C283.123962,99.579132 283.596405,96.436119 284.719147,94.228615 
	C285.245514,93.193672 288.575470,93.097527 290.454742,93.474304 
	C291.220581,93.627838 291.993927,96.201935 291.887817,97.608673 
	C291.762146,99.274727 290.690735,100.869453 289.749146,102.780106 
z"/>
<path fill="#000000" opacity="1.000000" stroke="none" 
	d="
M200.969131,393.206543 
	C200.928497,394.252289 200.986893,394.958862 200.746567,395.542389 
	C199.528900,398.498810 197.722046,400.865601 194.095413,399.885895 
	C192.958542,399.578796 191.146729,397.950043 191.300674,397.354553 
	C191.924164,394.942749 192.608200,391.942108 194.369232,390.579041 
	C196.666992,388.800476 199.396606,390.058929 200.969131,393.206543 
z"/>
<path fill="#000000" opacity="1.000000" stroke="none" 
	d="
M369.673218,364.087891 
	C369.901794,364.558685 369.744751,365.191528 369.285706,365.955048 
	C369.085022,365.473785 369.186279,364.861847 369.673218,364.087891 
z"/>
<path fill="#AE4492" opacity="1.000000" stroke="none" 
	d="
M251.962982,428.477905 
	C251.532211,428.968353 251.111115,428.994232 250.375519,428.988251 
	C250.060989,416.188782 250.060989,403.421143 250.060989,390.653503 
	C250.698212,390.654358 251.335434,390.655212 251.972656,390.656067 
	C251.972656,403.108459 251.972656,415.560883 251.962982,428.477905 
z"/>
</svg>