<svg version="1.1" id="Layer_1" xmlns="http://www.w3.org/2000/svg" xmlns:xlink="http://www.w3.org/1999/xlink" x="0px" y="0px"
	 width="100%" viewBox="0 0 496 496" enable-background="new 0 0 496 496" xml:space="preserve">
<path fill="#FFFFFF" opacity="1.000000" stroke="none" 
	d="
M293.000000,497.000000 
	C196.666687,497.000000 100.833351,496.976562 5.000187,497.095642 
	C1.576184,497.099915 0.903005,496.423828 0.905291,493.000000 
	C1.013875,330.333435 1.013871,167.666794 0.905326,5.000250 
	C0.903041,1.576951 1.575781,0.902988 4.999875,0.905275 
	C167.666428,1.013887 330.333069,1.013873 492.999634,0.905342 
	C496.422668,0.903058 497.097046,1.575422 497.094757,4.999756 
	C496.986115,167.666306 496.986115,330.332947 497.094635,492.999512 
	C497.096924,496.422272 496.425781,497.103363 493.000244,497.096649 
	C426.500336,496.966339 360.000153,497.000000 293.000000,497.000000 
z"/>
<path fill="#BA499C" opacity="1.000000" stroke="none" 
	d="
M338.809082,99.826202 
	C346.791138,101.746910 351.141357,107.166740 349.257660,112.619034 
	C348.788177,113.977837 348.684357,116.363434 346.193970,115.513779 
	C344.065063,114.787430 345.181244,113.377899 345.608429,111.897545 
	C346.806488,107.746277 342.624969,103.101471 338.278992,103.504509 
	C334.909973,103.816933 333.244507,107.077576 335.233032,110.092018 
	C336.580688,112.134956 338.607269,113.721512 340.267090,115.568924 
	C343.284241,118.927086 344.106079,122.493546 341.129272,126.352966 
	C338.253571,130.081314 334.638733,130.673874 330.477173,128.850967 
	C323.987732,126.008377 320.949402,119.790741 323.483093,114.411514 
	C324.054382,113.198616 324.363556,111.214684 326.578339,112.254501 
	C328.446167,113.131416 327.352600,114.367203 326.994690,115.596024 
	C325.556854,120.532310 327.902588,124.778946 332.651855,125.936348 
	C334.972565,126.501907 336.952881,125.994186 338.323914,123.909042 
	C339.584900,121.991249 339.389679,120.063461 337.960327,118.380203 
	C336.566162,116.738319 334.935547,115.299805 333.476044,113.710182 
	C331.258057,111.294411 329.529999,108.659195 330.883331,105.181282 
	C332.212524,101.765404 334.626221,99.758224 338.809082,99.826202 
z"/>
<path fill="#BA499B" opacity="1.000000" stroke="none" 
	d="
M159.108032,110.198654 
	C161.453339,107.116112 164.027084,105.229935 167.802658,105.766907 
	C168.399658,105.851814 169.278442,105.917313 169.612228,105.580643 
	C172.295868,102.873734 172.266403,102.843010 174.117218,105.877457 
	C177.496155,111.417267 180.770996,117.024300 184.291840,122.472359 
	C186.302597,125.583763 185.689560,127.646225 182.592285,129.393494 
	C179.840408,130.945892 177.174194,132.651276 174.485062,134.313232 
	C173.364838,135.005554 172.314056,135.328522 171.582123,133.870453 
	C170.919968,132.551376 172.077255,132.159164 172.863251,131.645157 
	C174.255203,130.734879 175.673462,129.864380 177.089218,128.991028 
	C182.663391,125.552330 182.664627,125.554321 178.318054,120.179138 
	C174.359009,126.595032 169.577026,128.674881 164.468475,126.202782 
	C158.878647,123.497787 156.517868,116.816544 159.108032,110.198654 
z"/>
<path fill="#BB4B9D" opacity="1.000000" stroke="none" 
	d="
M208.196411,102.203804 
	C207.056732,97.086029 206.015167,92.392944 204.921219,87.712097 
	C204.625870,86.448372 204.662903,84.782028 203.385300,84.219284 
	C202.265625,83.726089 201.048767,83.581978 201.203369,82.081551 
	C201.388412,80.285759 203.074677,80.481064 204.258286,80.160110 
	C218.436829,76.315407 220.934708,77.842255 224.071121,92.193474 
	C226.486450,103.245201 220.388992,110.021584 208.862381,109.213005 
	C206.754196,109.065125 206.541321,107.613503 207.307159,106.590118 
	C208.291748,105.274452 208.895065,104.195602 208.196411,102.203804 
z"/>
<path fill="#B9489B" opacity="1.000000" stroke="none" 
	d="
M383.183594,327.764771 
	C391.222412,334.283569 390.792450,340.329651 382.208344,345.917389 
	C381.939178,346.092560 381.494507,346.095886 381.332214,346.322784 
	C378.913971,349.703369 378.918243,349.714417 375.283539,347.213379 
	C370.493500,343.917297 365.788239,340.489746 360.896332,337.352936 
	C357.589111,335.232239 357.232483,333.039886 359.628571,330.013489 
	C361.377777,327.804138 362.815125,325.350525 364.486847,323.075867 
	C365.173492,322.141510 365.650848,320.222931 367.418823,321.601440 
	C369.036407,322.862732 367.521332,323.969604 366.910736,325.001526 
	C366.151428,326.284729 365.214020,327.461639 364.370392,328.695984 
	C360.928162,333.732422 360.930542,333.734039 366.811676,336.745117 
	C369.106506,326.585876 374.410034,323.556366 383.183594,327.764771 
z"/>
<path fill="#BA4A9C" opacity="1.000000" stroke="none" 
	d="
M418.683350,291.744690 
	C417.447510,295.964294 416.328186,299.796906 415.208923,303.629517 
	C414.872650,304.780975 414.577728,305.986755 412.907898,305.449921 
	C411.346405,304.947845 411.557312,303.865234 411.921234,302.644684 
	C412.729309,299.934753 413.196960,297.086823 414.307983,294.512970 
	C415.694611,291.300842 413.726105,290.626343 411.494507,290.375153 
	C409.362305,290.135193 406.437286,286.871674 405.231812,291.652161 
	C404.540497,294.393524 403.692383,297.095459 402.910187,299.813782 
	C402.572113,300.988495 402.181061,302.128998 400.562805,301.607605 
	C399.034515,301.115112 399.165009,300.069855 399.573853,298.815674 
	C400.192139,296.918945 400.453979,294.877869 401.266296,293.078247 
	C403.078613,289.063354 401.974609,287.147339 397.624542,286.186005 
	C394.570587,285.511169 392.988281,285.733368 392.427368,289.119354 
	C392.022491,291.563385 391.125549,293.931824 390.370941,296.309509 
	C389.993347,297.499359 389.892944,299.178680 387.840271,298.433990 
	C386.236023,297.852051 386.714294,296.666748 387.010101,295.536621 
	C387.094421,295.214447 387.152588,294.883087 387.264435,294.570862 
	C388.826416,290.210144 388.409576,283.879456 391.851624,281.826843 
	C395.334320,279.750000 400.528442,283.478241 404.984283,284.605560 
	C408.853424,285.584442 412.637543,286.897003 416.500641,287.903229 
	C418.445312,288.409760 419.518433,289.213562 418.683350,291.744690 
z"/>
<path fill="#BB4B9D" opacity="1.000000" stroke="none" 
	d="
M380.043152,167.263763 
	C375.262604,172.533066 376.463470,176.899338 383.113373,179.181793 
	C384.410553,179.626999 385.314087,180.113998 385.294067,181.401154 
	C385.265869,183.211700 383.743652,182.783112 382.677917,182.733185 
	C378.584412,182.541489 374.642517,178.475418 373.917114,173.787628 
	C373.110596,168.575546 376.470093,163.794189 382.320831,161.827240 
	C386.939880,160.274368 391.741974,162.168625 394.255707,166.535156 
	C396.675171,170.737946 395.891815,175.661652 392.327362,178.742859 
	C390.122162,180.649063 388.390106,181.473297 386.710449,177.896545 
	C384.959320,174.167633 382.537842,170.753540 380.043152,167.263763 
z"/>
<path fill="#BA4A9C" opacity="1.000000" stroke="none" 
	d="
M409.431396,233.482727 
	C414.415283,235.875427 416.390198,239.689713 415.655457,244.650726 
	C415.042175,248.791885 412.449127,251.473618 408.295593,252.545258 
	C405.521210,253.261063 403.810974,252.905716 403.926147,249.390930 
	C404.029388,246.240219 403.712311,243.070694 403.480225,239.916855 
	C403.401367,238.845505 403.816772,237.390656 402.341431,236.930435 
	C400.892212,236.478348 399.797333,237.377884 398.845215,238.350830 
	C396.185852,241.068298 396.427979,245.420227 399.707062,248.504745 
	C400.792694,249.526001 401.917969,250.309235 400.881653,251.680573 
	C399.677460,253.274078 398.510712,251.782181 397.548889,251.106949 
	C393.910736,248.552826 393.513153,244.749512 394.089600,240.822510 
	C394.685089,236.766083 397.455414,234.391144 401.213379,233.283905 
	C403.784668,232.526291 406.473114,232.455322 409.431396,233.482727 
z"/>
<path fill="#BB4B9D" opacity="1.000000" stroke="none" 
	d="
M250.855774,102.463966 
	C246.450302,102.363495 242.496765,103.236786 238.315750,104.481110 
	C234.387589,105.650169 230.902115,102.754799 229.315826,98.878273 
	C227.454910,94.330612 227.332535,89.662422 230.942337,85.768044 
	C233.994904,82.474823 237.725739,81.836197 241.852524,83.824715 
	C242.493546,84.133583 242.804459,85.044968 243.930481,84.592690 
	C247.701233,83.078156 247.587936,83.161324 247.969360,87.004646 
	C248.477448,92.124229 247.594986,97.549271 250.855774,102.463966 
z"/>
<path fill="#BA4A9C" opacity="1.000000" stroke="none" 
	d="
M331.575470,381.669617 
	C333.962799,388.335541 332.544159,392.913330 327.527893,395.698395 
	C323.363922,398.010254 318.372864,397.088135 315.359314,393.461304 
	C313.466431,391.183197 312.770935,389.368774 316.405334,387.898224 
	C319.464355,386.660492 322.289307,384.830444 325.181427,383.198120 
	C327.717255,381.766937 326.901611,380.365997 324.971191,379.176178 
	C321.539246,377.060913 316.593994,379.240356 315.128174,383.690460 
	C314.688568,385.024994 314.585999,386.632721 312.912445,386.297577 
	C310.662750,385.847076 311.652679,383.895569 311.971954,382.620453 
	C313.070496,378.232788 316.333252,375.965332 320.486938,375.237366 
	C325.588257,374.343323 329.058655,376.954895 331.575470,381.669617 
z"/>
<path fill="#BA4A9C" opacity="1.000000" stroke="none" 
	d="
M98.986389,230.563904 
	C103.859047,231.282227 106.093361,235.251251 105.043427,240.692673 
	C104.048149,245.850922 99.882019,248.976196 94.156868,248.859390 
	C88.381104,248.741547 84.020134,245.124557 83.310699,239.863571 
	C82.699539,235.331436 85.515373,230.639023 89.721336,229.180603 
	C94.472412,227.533188 96.036018,228.675674 95.754478,233.681076 
	C95.596107,236.496582 95.377174,239.312088 95.070541,242.115005 
	C94.681313,245.672928 96.425209,245.729156 98.860359,244.444321 
	C102.091766,242.739349 102.975136,237.644196 100.789108,234.363632 
	C100.050369,233.255005 97.847336,232.938766 98.986389,230.563904 
z"/>
<path fill="#BB4B9D" opacity="1.000000" stroke="none" 
	d="
M295.915710,385.541687 
	C303.686646,384.433380 308.324005,387.562805 309.752716,394.476044 
	C310.891357,399.985718 308.022491,404.743805 302.551849,406.447693 
	C299.069794,407.532227 295.964111,406.798370 293.288788,404.408203 
	C289.052734,400.623840 289.553711,398.158997 294.854950,396.338287 
	C297.367432,395.475342 299.911163,394.693970 302.384613,393.731384 
	C303.347015,393.356873 304.946838,393.474304 304.892303,391.859131 
	C304.849365,390.588776 303.746338,389.861053 302.794067,389.232605 
	C299.552612,387.093323 294.859283,388.604370 292.834198,392.549255 
	C292.200745,393.783203 291.853973,395.356354 290.163544,394.666779 
	C288.039398,393.800323 289.354218,392.135254 289.828430,390.875366 
	C290.831665,388.210083 292.935974,386.647797 295.915710,385.541687 
z"/>
<path fill="#BB4C9E" opacity="1.000000" stroke="none" 
	d="
M277.296692,99.767563 
	C277.385529,96.672646 278.018494,94.087074 279.385284,91.762131 
	C282.371613,86.682442 288.886322,85.324677 293.106384,88.908875 
	C294.499054,90.091705 295.153259,92.371193 297.773712,90.144112 
	C298.733093,89.328758 299.886993,90.910614 299.395264,92.648216 
	C298.400238,96.164345 297.562866,99.725723 296.696686,103.277275 
	C296.424255,104.394234 295.996643,105.571953 296.127899,106.663177 
	C296.283661,107.958344 298.424591,109.386284 296.554504,110.461731 
	C294.603302,111.583824 293.093292,109.970490 292.271484,108.233086 
	C291.573395,106.757225 290.903931,107.542000 289.960815,107.823868 
	C283.068115,109.883965 279.361725,107.604866 277.296692,99.767563 
z"/>
<path fill="#BA4A9C" opacity="1.000000" stroke="none" 
	d="
M87.645203,219.293274 
	C86.015526,215.022339 86.461250,211.474884 89.645699,208.479584 
	C90.062790,208.087265 90.771042,208.016190 90.726433,207.101883 
	C90.529968,203.075287 90.530693,203.380890 94.443634,203.851929 
	C99.044540,204.405792 103.412941,207.819061 108.346115,205.141830 
	C108.716980,204.940552 109.853104,205.349304 110.032082,205.745895 
	C110.549995,206.893524 110.213570,208.367386 109.243652,208.882797 
	C106.726845,210.220276 107.285797,211.688797 108.067940,213.898483 
	C109.846710,218.923752 105.965919,224.466232 100.403511,224.979080 
	C95.338150,225.446075 90.795982,224.253250 87.645203,219.293274 
z"/>
<path fill="#BA499C" opacity="1.000000" stroke="none" 
	d="
M205.486267,398.353516 
	C200.831879,407.326233 194.823669,408.263824 188.337296,401.341125 
	C188.016479,400.998779 187.810455,400.321899 187.468689,400.260742 
	C183.563248,399.561798 183.779114,399.652161 185.041000,395.471954 
	C186.267120,391.410217 189.711243,387.765442 187.699448,382.962341 
	C187.551407,382.608948 188.144089,381.608551 188.611862,381.399078 
	C189.852676,380.843506 191.145844,381.597534 191.588242,382.523224 
	C192.786880,385.031158 194.363571,384.660736 196.699921,384.298706 
	C203.552155,383.237000 207.690125,389.772400 205.486267,398.353516 
z"/>
<path fill="#BA499C" opacity="1.000000" stroke="none" 
	d="
M98.911636,305.012817 
	C102.657494,301.433685 104.908226,301.893982 106.300804,306.738159 
	C107.071281,309.418304 108.713501,311.835754 109.669296,314.477783 
	C110.886246,317.841705 112.289917,316.681152 113.681122,314.788849 
	C116.184387,311.384003 114.586624,306.431580 110.351028,304.445435 
	C109.085030,303.851776 106.782555,303.924805 107.612442,301.875824 
	C108.432442,299.851227 110.522614,300.956635 111.946640,301.493744 
	C116.722366,303.295013 119.364822,310.051727 117.319191,314.894043 
	C115.095200,320.158539 107.873222,323.327362 102.735252,321.293091 
	C97.377563,319.171814 94.736511,312.982300 97.019135,307.753601 
	C97.409187,306.860138 98.100693,306.098267 98.911636,305.012817 
z"/>
<path fill="#BB4B9D" opacity="1.000000" stroke="none" 
	d="
M221.379700,393.138855 
	C217.436249,400.368774 215.650284,407.973999 212.978516,415.240784 
	C211.949036,418.040771 210.921692,419.234131 207.637070,418.372925 
	C204.172974,417.464661 205.293152,415.505280 205.703049,413.458038 
	C207.136581,406.298370 208.547379,399.134155 209.990555,391.976440 
	C210.237350,390.752411 210.071045,388.985992 212.071869,389.270233 
	C214.442154,389.606934 213.513184,391.309784 213.313828,392.747375 
	C212.616776,397.774292 210.760956,402.633850 211.836609,408.088989 
	C213.574951,403.166046 215.419037,398.276917 217.007080,393.305939 
	C217.801025,390.820709 218.942444,389.966461 221.342331,391.673279 
	C221.465775,392.244507 221.547226,392.517761 221.379700,393.138855 
z"/>
<path fill="#BA4A9C" opacity="1.000000" stroke="none" 
	d="
M412.146301,222.804810 
	C411.495758,223.834274 411.113739,224.627518 410.500214,225.147720 
	C409.435425,226.050461 408.292175,227.902328 406.792938,226.662598 
	C404.688477,224.922440 407.041901,223.966980 407.986603,222.791748 
	C410.600586,219.540115 410.047333,215.076721 406.786011,212.724167 
	C403.348358,210.244415 397.367889,211.412872 395.329163,214.962570 
	C393.380554,218.355392 394.653290,222.955536 398.211212,224.771408 
	C399.633728,225.497452 401.997467,225.586685 400.808868,227.892105 
	C399.712433,230.018875 397.805939,228.412781 396.482788,227.798981 
	C392.232300,225.827133 390.068542,220.354858 391.393616,215.467758 
	C392.691040,210.682526 397.228577,207.652695 402.880981,207.797287 
	C407.869781,207.924911 412.058014,211.568192 412.838806,216.582977 
	C413.145447,218.552628 413.201569,220.556625 412.146301,222.804810 
z"/>
<path fill="#BA499C" opacity="1.000000" stroke="none" 
	d="
M349.110229,128.010178 
	C346.241089,130.888916 345.072998,133.881470 347.100586,137.272812 
	C349.012177,140.470062 351.820160,141.948242 355.555481,140.383621 
	C356.912628,139.815170 357.878113,140.111450 358.410095,141.374802 
	C359.119812,143.060165 357.542053,143.293823 356.595306,143.731140 
	C352.859039,145.456940 348.007477,143.973465 345.075409,140.169861 
	C342.265564,136.524780 341.714966,132.532608 344.145203,128.533249 
	C346.641693,124.424873 350.255920,121.751373 355.304657,122.562256 
	C359.938416,123.306480 363.075317,126.130760 364.400787,130.768738 
	C364.830444,132.272247 364.730103,133.736450 364.201141,135.178421 
	C363.829407,136.191727 363.852631,137.734894 362.089905,137.232285 
	C360.803772,136.865540 360.277649,136.126389 360.774841,134.604630 
	C361.856934,131.292679 360.592346,128.717819 357.708160,126.959595 
	C354.783569,125.176720 351.992340,125.665543 349.110229,128.010178 
z"/>
<path fill="#BA4A9C" opacity="1.000000" stroke="none" 
	d="
M391.655151,185.810028 
	C394.506287,184.751389 397.021515,183.887772 399.468140,182.860703 
	C401.464844,182.022491 403.070099,183.850403 402.289337,184.545914 
	C399.104065,187.383484 402.548248,187.450974 403.588409,188.368652 
	C407.807861,192.091202 407.518524,198.302551 402.569641,200.956268 
	C398.793091,202.981369 394.610535,204.247360 390.615662,205.868500 
	C389.363556,206.376617 388.361420,206.394089 387.903717,204.830627 
	C387.408630,203.139664 388.737640,202.897766 389.772583,202.489334 
	C392.859436,201.271149 396.013306,200.211014 399.050385,198.882004 
	C401.912720,197.629456 403.772369,195.567841 402.456268,192.197174 
	C401.206665,188.996719 398.709167,187.449936 395.323090,188.348404 
	C392.125916,189.196747 389.043945,190.484802 385.922913,191.611694 
	C384.573059,192.099060 383.261322,192.461823 382.725708,190.615433 
	C382.226227,188.893494 383.807800,188.781097 384.762878,188.379684 
	C386.903015,187.480240 389.109924,186.739639 391.655151,185.810028 
z"/>
<path fill="#B9489B" opacity="1.000000" stroke="none" 
	d="
M221.078888,393.917725 
	C221.142685,393.232574 221.154678,392.978424 221.275497,392.347778 
	C224.222443,390.832672 224.466461,392.492798 224.318390,394.654053 
	C223.967545,399.775055 223.646591,404.898071 223.320160,410.437439 
	C224.484985,412.915558 223.692245,414.929047 223.305237,416.973389 
	C223.909149,415.218658 223.718857,413.259918 224.734589,411.258972 
	C225.960938,405.939148 226.959045,400.904236 227.985046,395.874969 
	C228.267975,394.488190 228.154221,392.481262 230.431778,393.075134 
	C232.751144,393.679871 231.461166,395.486481 231.214996,396.781311 
	C229.823502,404.101288 228.313309,411.398865 226.946457,418.723267 
	C226.564194,420.771606 226.171890,422.258881 223.511795,421.408813 
	C221.531555,420.776031 219.346634,421.080292 219.659637,417.658112 
	C220.368164,409.911438 220.600845,402.121277 221.078888,393.917725 
z"/>
<path fill="#BA4A9C" opacity="1.000000" stroke="none" 
	d="
M181.627319,377.511963 
	C184.529419,383.666901 183.518784,388.768127 178.944794,392.504791 
	C175.058350,395.679749 169.819397,395.624023 165.619644,392.330597 
	C163.102921,390.357025 161.774734,387.783600 161.983063,384.545166 
	C162.051758,383.477173 161.672134,381.923737 163.391602,381.865936 
	C164.985168,381.812408 165.599442,382.730988 165.518585,384.456757 
	C165.332596,388.426117 167.525772,390.703857 171.325256,391.230896 
	C175.128967,391.758484 177.596512,389.795502 179.193756,386.437103 
	C180.559738,383.564880 180.377609,380.896393 178.188950,378.610565 
	C175.942062,376.263855 173.249283,375.285706 170.086502,376.909271 
	C168.833694,377.552399 167.302078,379.058563 166.346085,376.968292 
	C165.342361,374.773621 167.633514,374.143005 168.977692,373.599152 
	C173.986725,371.572510 178.016510,373.403809 181.627319,377.511963 
z"/>
<path fill="#BB4B9D" opacity="1.000000" stroke="none" 
	d="
M378.197235,319.859314 
	C377.702454,316.158630 377.752136,316.038269 380.418823,317.139252 
	C383.492493,318.408325 386.457886,319.937622 389.486908,321.317535 
	C392.559814,322.717407 395.159210,322.046295 396.658661,319.012360 
	C398.082489,316.131409 397.476440,313.296783 394.698517,311.555817 
	C391.894379,309.798340 388.778320,308.545258 385.851929,306.972504 
	C384.816040,306.415741 382.970032,306.250610 383.782776,304.264740 
	C384.557495,302.371796 385.809937,303.146973 387.057831,303.739227 
	C391.570068,305.880829 396.115387,307.953491 400.608368,310.134277 
	C401.686401,310.657501 403.899841,312.023956 402.495667,312.698547 
	C398.710663,314.516876 400.597992,317.730896 399.781830,320.204620 
	C398.421814,324.326752 394.519257,326.731476 390.367462,325.274261 
	C386.302368,323.847473 382.458008,321.791809 378.197235,319.859314 
z"/>
<path fill="#BA4A9C" opacity="1.000000" stroke="none" 
	d="
M113.713699,329.983734 
	C111.116432,332.611847 110.777046,335.191437 112.939636,337.793243 
	C115.284180,340.613983 118.203621,340.354614 121.053719,338.758026 
	C123.805122,337.216675 126.438080,335.455170 129.062668,333.700073 
	C130.257996,332.900787 131.211380,332.851410 131.978119,334.128082 
	C132.690170,335.313721 131.846985,335.930511 130.973694,336.498291 
	C126.374275,339.488525 121.773262,342.476288 117.180786,345.477173 
	C116.033455,346.226898 114.147026,346.083771 114.442169,345.008728 
	C115.488060,341.199097 112.076317,341.277313 110.505760,339.814209 
	C107.249374,336.780609 106.703690,332.288971 109.589340,329.153931 
	C112.895767,325.561829 117.439346,323.613373 121.361374,320.831207 
	C122.478554,320.038727 123.181839,320.646118 123.753799,321.587891 
	C124.507690,322.829285 123.574814,323.406708 122.750908,323.960388 
	C119.853577,325.907318 116.936104,327.824249 113.713699,329.983734 
z"/>
<path fill="#BA4A9C" opacity="1.000000" stroke="none" 
	d="
M122.754868,165.128204 
	C120.851936,164.007233 119.341423,162.942078 117.695801,162.161926 
	C114.876274,160.825272 112.180046,160.764557 110.245651,163.737244 
	C108.400261,166.573166 108.911011,169.331848 111.391922,171.316696 
	C114.100632,173.483810 117.215935,175.138138 120.113289,177.076828 
	C120.999939,177.670120 122.389908,178.113007 121.558914,179.712158 
	C120.586426,181.583588 119.404724,180.620148 118.275291,179.943314 
	C113.852669,177.293030 109.428314,174.645157 105.035522,171.946060 
	C104.252663,171.465042 103.061668,171.026062 103.504097,169.757248 
	C103.824089,168.839584 104.324036,168.094925 105.705872,168.338699 
	C108.054428,168.753036 106.650070,167.057388 106.650764,166.263367 
	C106.657143,158.997620 112.425034,155.468170 118.895874,158.901550 
	C121.829491,160.458084 124.642693,162.251831 127.443474,164.042831 
	C128.415359,164.664322 130.342392,164.925720 129.344772,166.840363 
	C128.220642,168.997787 126.866684,167.575333 125.630173,166.888504 
	C124.759155,166.404709 123.932793,165.840530 122.754868,165.128204 
z"/>
<path fill="#BB4C9E" opacity="1.000000" stroke="none" 
	d="
M332.743958,368.514771 
	C335.374878,371.697845 337.652405,374.766327 340.097260,377.695190 
	C342.119751,380.118073 344.645416,381.148346 347.532349,379.141235 
	C350.466919,377.101135 350.976044,374.174896 349.273071,371.256134 
	C347.526428,368.262543 345.251343,365.576172 343.191620,362.766998 
	C342.471741,361.785187 341.769470,360.874481 343.148224,359.834991 
	C344.554199,358.774963 345.250000,359.805969 345.953491,360.725433 
	C349.283539,365.077545 352.577148,369.457550 355.913177,373.805054 
	C356.828278,374.997620 356.445099,376.747437 355.416199,376.457458 
	C351.448883,375.339355 352.001068,378.886566 350.769104,380.488373 
	C347.779907,384.374908 342.869293,385.293549 339.487427,381.909546 
	C336.342102,378.762207 333.803802,375.004303 331.034241,371.486847 
	C329.539307,369.588257 330.890778,368.892609 332.743958,368.514771 
z"/>
<path fill="#BB4C9E" opacity="1.000000" stroke="none" 
	d="
M115.408920,192.407944 
	C114.267868,195.978409 113.019829,199.236816 111.712166,202.471130 
	C111.330910,203.414093 110.780510,204.310379 109.485680,203.785965 
	C108.613838,203.432846 108.066658,202.793304 108.542816,201.864975 
	C110.295830,198.447174 107.550217,197.995728 105.464668,197.117874 
	C103.779839,196.408691 102.095520,195.689255 100.373901,195.078918 
	C98.482697,194.408463 96.352570,192.632339 95.142311,196.047195 
	C94.797913,197.018951 93.883850,197.042068 93.065010,196.609665 
	C92.193764,196.149612 92.065056,195.404663 92.461525,194.515686 
	C94.220085,190.572586 96.245667,186.769104 96.972832,182.386093 
	C97.266289,180.617294 99.177040,179.371353 101.084465,179.173340 
	C102.906029,178.984283 105.651733,178.026825 106.175995,180.557678 
	C106.749390,183.325729 104.044624,182.618362 102.356697,182.846588 
	C100.526535,183.094040 99.394463,184.297073 98.948700,186.053223 
	C98.452873,188.006592 98.905457,189.933228 100.621399,190.902954 
	C103.352882,192.446609 106.299591,193.620148 109.192719,194.863052 
	C110.912125,195.601700 111.579857,194.415268 112.055191,193.048676 
	C112.684502,191.239349 113.640350,190.516418 115.408920,192.407944 
z"/>
<path fill="#BB4B9D" opacity="1.000000" stroke="none" 
	d="
M286.803619,410.529358 
	C282.678772,411.973236 278.418152,410.504486 274.593750,413.137726 
	C272.243896,414.755646 269.390045,413.230133 267.624695,410.917419 
	C266.692413,409.696136 265.030304,408.094727 266.701935,406.597076 
	C268.641693,404.859161 269.426361,406.927399 270.355072,408.290680 
	C271.532745,410.019409 273.312073,410.415314 275.220154,409.858429 
	C277.181396,409.286011 278.214386,407.787506 278.362671,405.791870 
	C278.599579,402.603149 277.871338,399.516907 277.207550,396.425690 
	C276.793457,394.497437 275.384644,394.858673 274.085968,394.981415 
	C272.830872,395.100037 271.632507,395.081024 271.589325,393.433411 
	C271.553467,392.064728 272.737457,392.036255 273.700378,391.858582 
	C276.478363,391.346069 279.258423,390.844849 282.036469,390.332733 
	C283.254303,390.108215 284.452850,390.016632 284.765686,391.600342 
	C285.027039,392.923370 284.041779,393.377350 283.017181,393.520874 
	C280.235016,393.910706 280.733124,395.838104 281.008667,397.652252 
	C281.333008,399.787750 281.676605,401.921631 282.075317,404.044281 
	C282.461731,406.101624 282.355713,408.473602 285.814911,407.809998 
	C287.384521,407.508850 287.356384,409.106262 286.803619,410.529358 
z"/>
<path fill="#BA499C" opacity="1.000000" stroke="none" 
	d="
M142.631546,131.934326 
	C145.029480,134.962021 147.220551,137.667908 149.438858,140.351273 
	C150.213242,141.287979 150.998611,142.116882 149.680695,143.268600 
	C148.366943,144.416687 147.621307,143.561096 146.832748,142.637146 
	C143.384537,138.596878 139.946213,134.548126 136.481873,130.521744 
	C135.537201,129.423798 135.054337,127.206459 136.425140,127.542137 
	C140.772095,128.606628 139.704788,125.001442 140.741089,123.324348 
	C143.472900,118.903351 148.781219,117.864876 152.635803,121.488731 
	C155.644669,124.317490 158.194199,127.638100 160.909500,130.773346 
	C161.531921,131.492035 162.320053,132.255249 161.219742,133.302643 
	C160.073563,134.393707 159.237656,134.066132 158.337494,132.991135 
	C156.526031,130.827835 154.647156,128.721161 152.817474,126.572914 
	C150.816788,124.223900 148.717514,121.857079 145.254517,123.597198 
	C141.891968,125.286850 141.160904,128.153671 142.631546,131.934326 
z"/>
<path fill="#BB4C9E" opacity="1.000000" stroke="none" 
	d="
M272.207184,84.494370 
	C273.430847,88.072571 271.119995,87.463623 269.395203,87.064819 
	C265.609589,86.189545 264.212494,87.804527 264.246948,91.408020 
	C264.262817,93.066101 264.111023,94.747665 263.825928,96.382072 
	C263.278198,99.521942 263.865082,101.599571 267.669617,101.468300 
	C268.791840,101.429573 270.169800,101.650391 269.991180,103.348595 
	C269.813568,105.037384 268.474335,104.739525 267.321075,104.767403 
	C261.066589,104.918594 259.723267,103.507500 260.213562,97.139023 
	C260.366913,95.147324 260.594482,93.156570 260.898224,91.182343 
	C261.353668,88.222404 261.263336,85.760780 257.224152,85.961456 
	C255.934067,86.025551 254.821991,85.603615 255.077713,83.979515 
	C255.297394,82.584305 256.425446,82.673477 257.407318,82.899231 
	C261.106110,83.749657 262.081024,81.871735 262.084930,78.601273 
	C262.086670,77.147011 261.537964,74.734810 264.263031,75.112144 
	C266.507599,75.422951 265.811737,77.505402 265.467255,78.766205 
	C263.678345,85.313568 268.879517,83.482269 272.207184,84.494370 
z"/>
<path fill="#BA4A9C" opacity="1.000000" stroke="none" 
	d="
M104.757866,259.167603 
	C104.879883,260.939911 104.936920,262.271912 105.060684,263.597717 
	C105.818024,271.709930 105.827187,271.749878 97.914284,272.554565 
	C91.787781,273.177582 85.648499,273.674377 79.516823,274.247772 
	C78.156479,274.375000 76.745934,274.672150 76.510422,272.697662 
	C76.267792,270.663483 77.824959,270.666931 79.117012,270.542694 
	C85.412766,269.937225 91.706627,269.282684 98.015320,268.853424 
	C101.165268,268.639099 102.483521,267.549286 101.762032,264.212006 
	C101.238434,261.790100 101.132683,259.254303 101.079170,256.764160 
	C101.052231,255.510284 99.749222,253.513214 102.244354,253.163757 
	C104.624664,252.830383 104.156158,254.914124 104.447350,256.244202 
	C104.624283,257.052399 104.637161,257.896484 104.757866,259.167603 
z"/>
<path fill="#BF57A3" opacity="1.000000" stroke="none" 
	d="
M249.667847,428.920593 
	C249.324951,415.920654 249.188736,403.262909 249.099182,390.604797 
	C249.089401,389.222595 248.563934,387.219269 250.934280,387.318878 
	C252.902771,387.401611 252.434326,389.204987 252.448395,390.427429 
	C252.586395,402.421661 252.680435,414.416412 252.776474,426.411102 
	C252.791809,428.326447 252.937836,430.427429 249.667847,428.920593 
z"/>
<path fill="#BB4B9D" opacity="1.000000" stroke="none" 
	d="
M188.337738,102.769531 
	C185.755692,96.410042 183.316422,90.407547 180.915558,84.389732 
	C180.518112,83.393562 179.534531,82.194450 181.128357,81.401146 
	C183.017990,80.460594 183.395096,82.120056 183.873154,83.282974 
	C188.547623,94.654053 193.191528,106.037720 197.826645,117.424919 
	C198.256134,118.480057 198.912979,119.665733 197.308884,120.373444 
	C195.237335,121.287376 195.168640,119.432770 194.714996,118.348473 
	C192.598816,113.290474 190.559906,108.200157 188.337738,102.769531 
z"/>
<path fill="#BA499B" opacity="1.000000" stroke="none" 
	d="
M141.453369,350.381500 
	C136.443832,351.101837 134.251083,355.335144 130.981125,358.143677 
	C129.505630,359.411011 131.481400,360.386200 132.052628,361.440033 
	C132.607864,362.464386 134.594177,363.198059 133.013046,364.689270 
	C131.159500,366.437408 130.428848,364.261505 129.536102,363.347412 
	C124.956802,358.658539 124.979919,358.625519 129.751221,354.310242 
	C131.479630,352.746979 133.151825,351.102966 135.004349,349.700073 
	C137.514816,347.798981 138.688370,346.021545 135.548645,343.620819 
	C134.734512,342.998322 133.520706,342.050171 134.886688,340.766785 
	C136.520691,339.231567 137.242508,340.949463 138.043549,341.800598 
	C140.552780,344.466797 143.012772,347.183472 145.389893,349.967621 
	C146.152145,350.860413 147.945648,351.744293 146.610611,353.222931 
	C144.902588,355.114716 144.140244,352.877441 143.116898,352.068512 
	C142.600388,351.660248 142.197250,351.108551 141.453369,350.381500 
z"/>
<path fill="#BB4D9E" opacity="1.000000" stroke="none" 
	d="
M131.549561,159.619446 
	C135.120239,153.524155 135.120300,153.524078 129.422958,148.588104 
	C126.897125,146.399796 124.518806,142.888092 121.386238,147.999832 
	C120.512032,149.426361 118.769691,148.774094 118.762749,147.693451 
	C118.743019,144.624008 121.798531,143.274963 123.343094,141.036896 
	C124.569908,139.259277 125.636452,140.852448 126.565910,141.624512 
	C129.373627,143.956787 132.296448,146.186691 134.853043,148.774033 
	C137.027954,150.975113 138.503250,151.016556 140.245300,148.420242 
	C140.848373,147.521439 141.523865,145.642731 143.258636,147.087006 
	C144.879837,148.436737 143.437622,149.437927 142.648560,150.381058 
	C140.093414,153.435150 137.464264,156.427231 134.895752,159.470306 
	C133.932449,160.611588 133.000412,161.420410 131.549561,159.619446 
z"/>
<path fill="#BA499B" opacity="1.000000" stroke="none" 
	d="
M378.833069,144.855469 
	C380.139008,146.873581 378.548004,147.451050 377.602814,148.229538 
	C375.032135,150.346817 372.470459,152.484055 369.788483,154.454437 
	C367.330597,156.260162 365.779816,157.975677 368.800201,160.640930 
	C369.606720,161.352615 370.615356,162.394760 369.216797,163.542664 
	C367.834442,164.677246 367.100494,163.463852 366.397980,162.604980 
	C363.762207,159.382584 361.181641,156.115082 358.573578,152.869949 
	C357.947784,152.091309 357.111511,151.303162 358.164185,150.331665 
	C359.369476,149.219330 360.436249,149.929276 361.034058,150.998154 
	C363.609253,155.602173 366.082611,153.566650 368.712311,151.065704 
	C370.034668,149.808075 371.496979,148.672195 373.006226,147.642868 
	C374.944458,146.320938 375.218445,145.084885 373.535126,143.255585 
	C372.685577,142.332352 370.761261,141.004501 372.767548,139.600052 
	C374.720245,138.233078 375.133453,140.628189 376.067291,141.530991 
	C377.018494,142.450562 377.778259,143.568176 378.833069,144.855469 
z"/>
<path fill="#B84398" opacity="1.000000" stroke="none" 
	d="
M361.047058,357.958740 
	C359.834564,356.794464 358.766846,355.965942 357.941406,354.942078 
	C356.152740,352.723541 354.625061,352.797760 352.841370,355.006134 
	C352.163422,355.845520 351.397430,357.696472 349.742584,356.246826 
	C348.094727,354.803345 349.741730,353.922668 350.546722,353.045105 
	C353.123352,350.235962 355.740631,347.462402 358.405304,344.736755 
	C359.234955,343.888153 360.063385,342.248260 361.556641,343.870148 
	C362.747650,345.163727 361.549408,346.111603 360.703949,346.718506 
	C357.038849,349.349701 358.463104,351.387329 361.247986,353.480865 
	C362.432587,354.371368 363.481445,355.463531 364.498138,356.551758 
	C366.549438,358.747406 368.517395,360.754700 371.064850,357.073914 
	C371.594604,356.308472 372.457916,355.491486 373.542572,356.445770 
	C374.861481,357.606079 373.812225,358.423004 373.113617,359.347290 
	C368.775970,365.085938 368.785553,365.093170 361.047058,357.958740 
z"/>
<path fill="#BB4D9E" opacity="1.000000" stroke="none" 
	d="
M152.622131,379.151917 
	C148.060715,379.887268 144.276749,379.194122 142.054260,375.109680 
	C139.806503,370.978851 142.231522,367.864990 144.671616,364.830627 
	C146.536255,362.511902 148.383179,360.178925 150.242126,357.855621 
	C151.118256,356.760620 152.073044,356.558289 153.171387,357.575409 
	C154.262177,358.585602 153.434814,359.371338 152.851654,360.111633 
	C151.010315,362.449036 149.077744,364.715149 147.258163,367.068909 
	C145.720505,369.057953 144.197235,371.178406 145.562149,373.838104 
	C146.929596,376.502777 149.274918,377.461761 152.610046,377.050903 
	C153.518097,377.720520 153.476486,378.373108 152.622131,379.151917 
z"/>
<path fill="#BA499B" opacity="1.000000" stroke="none" 
	d="
M152.018326,379.636292 
	C152.523254,378.683350 152.759583,378.075073 153.004333,377.259644 
	C156.703766,374.632172 158.842987,370.798492 161.654846,367.576782 
	C162.372864,366.754120 162.928558,365.504639 164.419693,366.555176 
	C166.141144,367.767914 165.119751,368.749451 164.272659,369.804718 
	C159.305008,375.993042 154.351578,382.192841 149.373138,388.372498 
	C148.578064,389.359436 147.862259,390.776825 146.238647,389.412659 
	C144.580002,388.019073 146.035721,387.107605 146.772476,386.158112 
	C148.393265,384.069336 150.086212,382.036591 152.018326,379.636292 
z"/>
<path fill="#B9489B" opacity="1.000000" stroke="none" 
	d="
M376.066040,366.022705 
	C377.173309,369.140625 375.853699,370.555725 373.162323,370.411072 
	C371.482391,370.320801 370.493561,368.787842 370.988068,367.122864 
	C371.815125,364.338165 373.611359,363.954742 376.066040,366.022705 
z"/>
<path fill="#BB4C9E" opacity="1.000000" stroke="none" 
	d="
M381.045227,142.439636 
	C380.333740,139.909546 381.382690,138.636948 383.438660,138.258987 
	C384.644470,138.037354 385.566498,138.845108 386.187683,139.901367 
	C386.858276,141.041641 386.706451,142.143616 385.808044,143.016525 
	C384.224915,144.554703 382.639526,144.400528 381.045227,142.439636 
z"/>
<path fill="#BB4C9E" opacity="1.000000" stroke="none" 
	d="
M115.770630,137.790802 
	C116.030739,134.868942 117.280884,133.412506 119.945221,134.724976 
	C121.611778,135.545929 122.265396,137.284531 120.928856,138.793228 
	C119.132225,140.821320 117.261841,140.557556 115.770630,137.790802 
z"/>
<path fill="#BB4D9E" opacity="1.000000" stroke="none" 
	d="
M118.974609,363.939484 
	C119.880791,360.903442 121.536537,360.080170 123.829819,361.909973 
	C125.207993,363.009613 125.228905,364.656738 123.890015,365.813263 
	C121.629227,367.766205 119.991287,366.884552 118.974609,363.939484 
z"/>
<path fill="#E5BCDA" opacity="1.000000" stroke="none" 
	d="
M224.679901,411.000122 
	C225.212128,413.454102 224.250717,415.685791 223.076126,417.999725 
	C223.076126,415.901276 223.076126,413.802826 223.201462,411.279480 
	C223.687012,410.912506 224.047241,410.970398 224.679901,411.000122 
z"/>
<path fill="#FBF6FA" opacity="1.000000" stroke="none" 
	d="
M167.499878,123.682182 
	C166.393890,123.213837 165.565552,122.955132 164.935028,122.449661 
	C161.223145,119.474014 160.046265,115.248116 161.967468,111.951447 
	C163.724121,108.937157 166.442841,108.153046 169.648666,108.910973 
	C173.082153,109.722702 176.144165,114.161049 175.554382,117.689461 
	C174.849579,121.906052 172.186295,123.963745 167.499878,123.682182 
z"/>
<path fill="#FCF8FB" opacity="1.000000" stroke="none" 
	d="
M213.722046,81.939171 
	C216.397934,82.150925 217.886246,83.541603 218.534897,85.506104 
	C219.887115,89.601341 221.070648,93.764778 221.264664,98.124916 
	C221.372940,100.557816 220.243408,102.219978 218.121704,103.326996 
	C214.175293,105.386070 212.639282,104.731812 211.589432,100.375450 
	C210.616806,96.339516 210.062698,92.168854 208.722458,88.264091 
	C207.107010,83.557617 208.603943,81.742493 213.722046,81.939171 
z"/>
<path fill="#FBF6FA" opacity="1.000000" stroke="none" 
	d="
M376.696442,343.532654 
	C371.079041,340.654694 369.161591,337.566467 370.646667,333.859253 
	C372.041992,330.376129 374.640869,328.557220 378.488586,329.365021 
	C382.833954,330.277283 385.824280,334.003418 385.249512,337.918610 
	C384.566132,342.574097 381.578247,344.299683 376.696442,343.532654 
z"/>
<path fill="#FBF6FA" opacity="1.000000" stroke="none" 
	d="
M387.378357,172.573395 
	C386.538818,171.096649 385.797882,169.986542 385.280975,168.780426 
	C384.798950,167.655548 383.162933,166.420013 384.349091,165.312958 
	C385.644165,164.104294 387.514465,164.704865 388.967590,165.596466 
	C391.261017,167.003693 392.361115,169.108231 392.217560,171.839325 
	C392.136719,173.377472 391.908813,175.191620 390.446014,175.643372 
	C388.510803,176.240982 388.523956,173.867386 387.378357,172.573395 
z"/>
<path fill="#FBF6FA" opacity="1.000000" stroke="none" 
	d="
M410.530823,247.760223 
	C409.968140,248.206268 409.718536,248.433731 409.426727,248.572220 
	C407.133087,249.660812 406.779999,248.133911 407.006256,246.520599 
	C407.458588,243.295197 405.104584,239.520660 408.155212,236.978149 
	C409.137360,236.159607 411.030243,238.163300 411.753693,239.686172 
	C413.060822,242.437500 412.813660,245.095505 410.530823,247.760223 
z"/>
<path fill="#FCF8FB" opacity="1.000000" stroke="none" 
	d="
M231.831665,93.093361 
	C232.961365,87.647263 235.559647,85.203209 239.305450,86.053123 
	C243.572403,87.021286 245.063339,90.270691 244.938583,94.272873 
	C244.817154,98.167534 243.136932,100.991112 238.775879,101.244362 
	C234.505905,101.492325 232.559372,99.296082 231.831665,93.093361 
z"/>
<path fill="#F7EBF4" opacity="1.000000" stroke="none" 
	d="
M318.231323,391.093323 
	C321.168762,389.118164 324.045502,387.491577 326.941010,385.899139 
	C327.630981,385.519653 328.391296,384.760223 329.180908,385.391571 
	C330.052582,386.088501 329.853760,387.191742 329.665955,388.169281 
	C328.644562,393.486572 322.978607,395.101807 318.231323,391.093323 
z"/>
<path fill="#F9EFF6" opacity="1.000000" stroke="none" 
	d="
M86.504883,238.219727 
	C86.825661,236.375244 87.249084,234.952789 88.396866,233.888397 
	C89.360603,232.994705 90.439102,231.799377 91.791267,232.309082 
	C93.540359,232.968430 92.394722,234.578445 92.374207,235.775391 
	C92.345963,237.423859 92.299217,239.085083 92.065620,240.712891 
	C91.871048,242.068649 92.781990,244.145309 91.060440,244.605408 
	C89.321609,245.070114 88.135345,243.342987 87.374268,241.876663 
	C86.859764,240.885406 86.745415,239.686462 86.504883,238.219727 
z"/>
<path fill="#F7EBF4" opacity="1.000000" stroke="none" 
	d="
M301.358826,397.372070 
	C303.379028,397.302094 305.413147,394.678741 306.482025,396.948029 
	C307.433258,398.967529 305.674377,401.034668 303.838654,402.360687 
	C302.322693,403.455811 300.588806,404.112457 298.681244,403.602692 
	C297.066528,403.171112 295.123016,402.631195 294.927826,400.788055 
	C294.714874,398.777802 296.980713,399.124634 298.177460,398.498779 
	C299.048981,398.042938 300.050537,397.835663 301.358826,397.372070 
z"/>
<path fill="#FCF7FA" opacity="1.000000" stroke="none" 
	d="
M291.616760,91.455643 
	C294.230499,93.636772 294.538330,96.204681 294.117432,98.957008 
	C293.471466,103.180916 290.304291,106.271187 286.869049,105.714905 
	C282.916565,105.074860 280.665405,102.748878 280.904785,98.489471 
	C281.169708,93.775124 284.086578,90.287064 287.978058,90.305168 
	C289.087616,90.310333 290.194427,90.902519 291.616760,91.455643 
z"/>
<path fill="#FCF7FA" opacity="1.000000" stroke="none" 
	d="
M105.305405,215.065430 
	C105.168243,218.976242 103.275589,221.223251 99.930176,221.642761 
	C96.514420,222.071106 93.202484,221.153564 91.123451,218.122620 
	C89.001053,215.028458 89.701614,212.075943 92.498177,209.716522 
	C95.400963,207.267517 100.514679,207.808197 103.463531,210.693359 
	C104.590744,211.796249 105.225693,213.084915 105.305405,215.065430 
z"/>
<path fill="#FCF7FA" opacity="1.000000" stroke="none" 
	d="
M199.155487,387.664917 
	C203.875656,391.572510 204.099472,396.944824 200.020416,400.651672 
	C197.775513,402.691803 195.136993,402.898376 192.588837,401.608978 
	C189.966934,400.282227 188.788452,397.798340 189.268723,394.910095 
	C189.870087,391.293610 191.467468,388.183746 195.391190,387.194763 
	C196.438400,386.930817 197.663925,387.374329 199.155487,387.664917 
z"/>
<path fill="#F7EBF4" opacity="1.000000" stroke="none" 
	d="
M103.636551,308.397888 
	C104.739662,310.847748 105.710236,312.949646 106.559731,315.099396 
	C106.959785,316.111786 108.175537,317.225708 107.299362,318.233673 
	C106.286179,319.399261 104.823631,318.675201 103.612579,318.159271 
	C99.667488,316.478668 98.063080,311.398529 100.465370,308.236328 
	C101.372345,307.042450 102.351562,306.198578 103.636551,308.397888 
z"/>
<path fill="#FFFFFF" opacity="1.000000" stroke="none" 
	d="
M210.449905,409.279297 
	C211.333588,410.008911 211.100052,410.850189 210.495438,411.605591 
	C210.404465,411.719299 209.963913,411.553223 209.685059,411.516571 
	C209.842773,410.826324 210.000473,410.136078 210.449905,409.279297 
z"/>
</svg>